<?xml version="1.0" standalone="no"?>
<!DOCTYPE svg PUBLIC "-//W3C//DTD SVG 1.1//EN" "http://www.w3.org/Graphics/SVG/1.1/DTD/svg11.dtd" >
<svg xmlns="http://www.w3.org/2000/svg">
  <metadata>Created by iconfont</metadata>
  <defs>
  <font id="iconfont" horiz-adv-x="1024">
    <font-face
      font-family="iconfont"
      font-weight="400"
      font-stretch="normal"
      units-per-em="1024"
      ascent="896"
      descent="-128"
    />
      <missing-glyph />
      
      <glyph glyph-name="fuzhi" unicode="&#59406;" d="M298.666667 768v-170.666667H128v-597.333333h597.333333v170.666667h170.666667V768H298.666667z m362.666666-704H192V533.333333h469.333333v-469.333333z m170.666667 170.666667h-106.666667V597.333333H362.666667V704h469.333333v-469.333333z"  horiz-adv-x="1024" />
      
      <glyph glyph-name="daifukuan" unicode="&#59404;" d="M96 712v-656h832V712H96z m776-400H637.6c-38.4 0.8-69.6 32.8-69.6 72v2.4c0.8 38.4 32.8 69.6 72 69.6h232v-144z m0 200H640c-70.4 0-128-57.6-128-128s57.6-128 128-128h232v-144H152V656h720v-144z"  horiz-adv-x="1024" />
      
      <glyph glyph-name="songhuozhong" unicode="&#59405;" d="M704 568V752H96v-640h98.4v-0.8c11.2-54.4 60-95.2 117.6-95.2s106.4 40.8 117.6 95.2V112h164.8v-0.8c11.2-54.4 60-95.2 117.6-95.2s106.4 40.8 117.6 95.2V112H928V432L704 568zM152 696h496v-288H152V696z m160-624c-35.2 0-64 28.8-64 64s28.8 64 64 64 64-28.8 64-64-28.8-64-64-64z m400 0c-35.2 0-64 28.8-64 64s28.8 64 64 64 64-28.8 64-64-28.8-64-64-64z m160 96h-44l-0.8 1.6C812.8 220 766.4 256 712 256s-100.8-36-115.2-86.4l-0.8-1.6h-168l-0.8 1.6C412.8 220 366.4 256 312 256s-100.8-36-115.2-86.4l-0.8-1.6H152V352h552V502.4l168-101.6V168z"  horiz-adv-x="1024" />
      
      <glyph glyph-name="meishuguan-changjiantou-you" unicode="&#59402;" d="M650.666667 736C650.666667 551.530667 790.954667 405.333333 960 405.333333v-64c-169.045333 0-309.333333-146.197333-309.333333-330.666666h-64c0 137.557333 66.986667 259.904 169.322666 330.666666H0v64h755.989333C653.653333 476.096 586.666667 598.442667 586.666667 736h64z"  horiz-adv-x="1024" />
      
      <glyph glyph-name="meishuguan-changjiantou-zuo" unicode="&#59403;" d="M309.333333 736C309.333333 551.530667 169.045333 405.333333 0 405.333333v-64c169.045333 0 309.333333-146.197333 309.333333-330.666666h64c0 137.557333-66.986667 259.904-169.322666 330.666666H960v64H204.010667C306.346667 476.096 373.333333 598.442667 373.333333 736h-64z"  horiz-adv-x="1024" />
      
      <glyph glyph-name="jifenbulu" unicode="&#59401;" d="M915.504762 358.4l-59.733333 59.733333L828.952381 444.952381l-25.6-25.6-10.971429-10.971429V810.666667H170.666667v-731.428572h292.571428l-4.87619-4.87619v-112.152381h112.152381l344.990476 344.990476 25.6 25.6-25.6 25.6zM207.238095 115.809524V774.095238h548.571429v-402.285714L499.809524 115.809524H207.238095z m347.428572-117.028572h-59.733334v59.733334l271.847619 271.847619 59.733334-59.733334-271.847619-271.847619z m297.447619 297.447619l-59.733334 60.952381 36.571429 36.571429 59.733333-59.733333-36.571428-37.790477zM487.619048 518.095238c15.847619 20.72381 24.380952 45.104762 24.380952 73.142857 0 67.047619-54.857143 121.904762-121.904762 121.904762s-121.904762-54.857143-121.904762-121.904762c0-28.038095 8.533333-52.419048 24.380953-73.142857-15.847619-20.72381-24.380952-45.104762-24.380953-73.142857 0-67.047619 54.857143-121.904762 121.904762-121.904762s121.904762 54.857143 121.904762 121.904762c0 28.038095-8.533333 52.419048-24.380952 73.142857z m-97.52381-158.47619c-47.542857 0-85.333333 37.790476-85.333333 85.333333 0 17.066667 4.87619 34.133333 14.628571 47.542857 19.504762-14.628571 45.104762-23.161905 70.704762-23.161905s51.2 8.533333 70.704762 23.161905c8.533333-13.409524 14.628571-29.257143 14.628571-47.542857 0-47.542857-37.790476-85.333333-85.333333-85.333333z m-43.885714 158.47619c13.409524 7.314286 28.038095 12.190476 43.885714 12.190476s31.695238-4.87619 43.885714-12.190476c-13.409524-7.314286-28.038095-12.190476-43.885714-12.190476s-31.695238 4.87619-43.885714 12.190476z m114.590476 25.6C441.295238 558.32381 416.914286 566.857143 390.095238 566.857143s-51.2-8.533333-70.704762-23.161905c-9.752381 13.409524-14.628571 30.47619-14.628571 47.542857 0 47.542857 37.790476 85.333333 85.333333 85.333334s85.333333-37.790476 85.333333-85.333334c0-17.066667-4.87619-34.133333-14.628571-47.542857z"  horiz-adv-x="1024" />
      
      <glyph glyph-name="zhaopian" unicode="&#59400;" d="M938.666667 194.133333V725.333333H85.333333v-682.666666h853.333334v151.466666zM874.666667 106.666667H149.333333v189.866666l170.666667 170.666667 309.333333-309.333333 128 128 117.333334-117.333334V106.666667z m0 151.466666l-117.333334 117.333334-128-128L320 556.8l-170.666667-170.666667V661.333333h725.333334v-403.2zM725.333333 533.333333m-64 0a64 64 0 1 1 128 0 64 64 0 1 1-128 0Z"  horiz-adv-x="1024" />
      
      <glyph glyph-name="wuganjifen" unicode="&#59399;" d="M396.190476 408.380952c45.104762 0 85.333333 17.066667 115.809524 45.104762 30.47619-28.038095 70.704762-45.104762 115.809524-45.104762 93.866667 0 170.666667 76.8 170.666666 170.666667s-76.8 170.666667-170.666666 170.666667c-45.104762 0-85.333333-17.066667-115.809524-45.104762-30.47619 28.038095-70.704762 45.104762-115.809524 45.104762-93.866667 0-170.666667-76.8-170.666666-170.666667s76.8-170.666667 170.666666-170.666667zM536.380952 676.571429c24.380952 21.942857 56.07619 36.571429 91.428572 36.571428 74.361905 0 134.095238-59.733333 134.095238-134.095238s-59.733333-134.095238-134.095238-134.095238c-35.352381 0-68.266667 13.409524-91.428572 36.571429 19.504762 28.038095 30.47619 60.952381 30.476191 97.523809s-10.971429 70.704762-30.476191 97.52381z m-24.380952-30.476191c12.190476-19.504762 18.285714-42.666667 18.285714-67.047619s-6.095238-47.542857-18.285714-67.047619c-12.190476 19.504762-18.285714 42.666667-18.285714 67.047619s6.095238 47.542857 18.285714 67.047619zM396.190476 713.142857c35.352381 0 68.266667-13.409524 91.428572-36.571428-19.504762-28.038095-30.47619-60.952381-30.476191-97.52381s10.971429-70.704762 30.476191-97.523809c-24.380952-21.942857-56.07619-36.571429-91.428572-36.571429-74.361905 0-134.095238 59.733333-134.095238 134.095238s59.733333 134.095238 134.095238 134.095238zM609.52381 225.52381v85.333333H353.52381L121.904762 176.761905v-170.666667h323.047619L902.095238 225.52381V353.52381L609.52381 225.52381z m256 23.161904L436.419048 42.666667H158.47619v114.590476L364.495238 274.285714H572.952381v-73.142857H402.285714v-36.571428h170.666667l292.571429 132.87619v-48.761905z"  horiz-adv-x="1024" />
      
      <glyph glyph-name="a-pingjiaduihua" unicode="&#59398;" d="M384 768v-149.333333H85.333333v-618.666667l170.666667 170.666667h469.333333V426.666667h42.666667l170.666667-170.666667V768H384z m277.333333-533.333333H230.4L149.333333 153.6V554.666667h512v-320z m213.333334 174.933333L793.6 490.666667H725.333333v128H448V704h426.666667v-294.4z"  horiz-adv-x="1024" />
      
      <glyph glyph-name="qiehuan" unicode="&#59397;" d="M938.666667 384c0 234.666667-192 426.666667-426.666667 426.666667S85.333333 618.666667 85.333333 384s192-426.666667 426.666667-426.666667 426.666667 192 426.666667 426.666667zM149.333333 384c0 200.533333 162.133333 362.666667 362.666667 362.666667s362.666667-162.133333 362.666667-362.666667-162.133333-362.666667-362.666667-362.666667S149.333333 183.466667 149.333333 384z m618.666667-44.8V341.333333H256v-64h373.333333l-98.133333-104.533333 2.133333-2.133333h83.2l151.466667 168.533333z m0 151.466667v-64H253.866667l153.6 170.666666H490.666667l2.133333-2.133333-98.133333-104.533333H768z"  horiz-adv-x="1024" />
      
      <glyph glyph-name="xiaoxi1" unicode="&#59396;" d="M951.466667 264.533333l-211.2 209.066667-44.8 164.266667c-36.266667 136.533333-177.066667 217.6-313.6 181.333333-136.533333-36.266667-217.6-177.066667-181.333334-313.6l44.8-164.266667-76.8-285.866666 782.933334 209.066666zM398.933333 757.333333c102.4 27.733333 206.933333-34.133333 234.666667-136.533333l49.066667-181.333333 142.933333-142.933334-567.466667-151.466666 53.333334 194.133333-49.066667 181.333333c-25.6 104.533333 34.133333 209.066667 136.533333 236.8zM505.6 12.8c-44.8-12.8-91.733333 2.133333-123.733333 34.133333l-68.266667-19.2c44.8-66.133333 128-98.133333 209.066667-76.8 81.066667 21.333333 136.533333 91.733333 140.8 170.666667l-66.133334-17.066667c-10.666667-42.666667-44.8-78.933333-91.733333-91.733333z"  horiz-adv-x="1024" />
      
      <glyph glyph-name="a-zidongjiesuanjifentingchequan" unicode="&#59395;" d="M874.666667 704v-96C800 729.6 665.6 810.666667 512 810.666667 298.666667 810.666667 121.6 652.8 89.6 448h64C185.6 618.666667 332.8 746.666667 512 746.666667c162.133333 0 300.8-108.8 347.733333-256H938.666667V704h-64zM512 21.333333c-179.2 0-326.4 128-356.266667 298.666667H85.333333v-213.333333h64v53.333333c74.666667-121.6 209.066667-202.666667 362.666667-202.666667 228.266667 0 416 179.2 426.666667 405.333334h-64c-10.666667-189.866667-168.533333-341.333333-362.666667-341.333334zM646.4 386.133333c32 32 64 66.133333 102.4 102.4L704 533.333333c-38.4-38.4-72.533333-72.533333-102.4-104.533333l-140.8-140.8-106.666667 106.666667-44.8-44.8 149.333334-149.333334 23.466666 21.333334 164.266667 164.266666z"  horiz-adv-x="1024" />
      
      <glyph glyph-name="yuyue" unicode="&#59394;" d="M704 426.666667c-130.133333 0-234.666667-104.533333-234.666667-234.666667s104.533333-234.666667 234.666667-234.666667 234.666667 104.533333 234.666667 234.666667-104.533333 234.666667-234.666667 234.666667z m0-405.333334c-93.866667 0-170.666667 76.8-170.666667 170.666667s76.8 170.666667 170.666667 170.666667 170.666667-76.8 170.666667-170.666667-76.8-170.666667-170.666667-170.666667zM736 320h-64V179.2l100.266667-100.266667 44.8 44.8-81.066667 81.066667zM192 490.666667h640v-42.666667h64V725.333333h-128V810.666667h-64v-85.333334H320V810.666667h-64v-85.333334H128v-725.333333h320v64H192V490.666667z m0 170.666666h640v-106.666666H192v106.666666z"  horiz-adv-x="1024" />
      
      <glyph glyph-name="shibai" unicode="&#59393;" d="M512 816c-238.4 0-432-193.6-432-432s193.6-432 432-432 432 193.6 432 432-193.6 432-432 432z m0-808c-208 0-376 168-376 376s168 376 376 376 376-168 376-376-168-376-376-376zM480 580h64V392h-64zM514.4 344c-108.8 0-200-75.2-225.6-176l62.4-15.2c18.4 73.6 84 128 163.2 128 79.2 0 144.8-54.4 163.2-128l62.4 15.2c-25.6 100.8-116.8 176-225.6 176zM312.8 393.6l108.8 84c4 3.2 4 9.6 0 12.8L312.8 574.4l-34.4-44 59.2-45.6-59.2-45.6 34.4-45.6zM711.2 574.4L602.4 490.4c-4-3.2-4-9.6 0-12.8l108.8-84 34.4 44-59.2 45.6 59.2 45.6-34.4 45.6z"  horiz-adv-x="1024" />
      
      <glyph glyph-name="wuxiantingcheshijian" unicode="&#59392;" d="M874.666667 704v-96C800 729.6 665.6 810.666667 512 810.666667 298.666667 810.666667 121.6 652.8 89.6 448h64C185.6 618.666667 332.8 746.666667 512 746.666667c162.133333 0 300.8-108.8 347.733333-256H938.666667V704h-64zM512 21.333333c-179.2 0-326.4 128-356.266667 298.666667H85.333333v-213.333333h64v53.333333c74.666667-121.6 209.066667-202.666667 362.666667-202.666667 228.266667 0 416 179.2 426.666667 405.333334h-64c-10.666667-189.866667-168.533333-341.333333-362.666667-341.333334zM533.333333 320c70.4 0 128 57.6 128 128s-57.6 128-128 128h-128v-384h64v128h64z m-64 192h64c36.266667 0 64-27.733333 64-64s-27.733333-64-64-64h-64v128z"  horiz-adv-x="1024" />
      
      <glyph glyph-name="wenzhang" unicode="&#59390;" d="M170.666667 810.666667v-853.333334h682.666666V810.666667H170.666667z m618.666666-789.333334H234.666667V746.666667h554.666666v-725.333334zM298.666667 426.666667h192v-64h-192zM298.666667 554.666667h426.666666v-64H298.666667zM298.666667 682.666667h426.666666v-64H298.666667z"  horiz-adv-x="1024" />
      
      <glyph glyph-name="a-fillon2" unicode="&#59391;" d="M85.333333 42.666667h853.333334V533.333333H85.333333v-490.666666z m426.666667 192h298.666667v-64H512v64zM85.333333 725.333333h853.333334v-128H85.333333z"  horiz-adv-x="1024" />
      
      <glyph glyph-name="erweima" unicode="&#59389;" d="M128 426.666667h341.333333V768H128v-341.333333z m554.666667-85.333334h-128v-128h128v128z m213.333333 0h-149.333333v-192h-192v-149.333333h341.333333V341.333333zM469.333333 0H128V341.333333h341.333333v-341.333333z m85.333334 426.666667h341.333333V768H554.666667v-341.333333z"  horiz-adv-x="1024" />
      
      <glyph glyph-name="huodongrili" unicode="&#59388;" d="M414.47619 457.142857H243.809524v-170.666667h170.666666V457.142857z m-36.571428-134.095238h-97.52381v97.52381h97.52381v-97.52381zM780.190476 713.142857V810.666667h-36.571428v-97.52381H280.380952V810.666667h-36.571428v-97.52381h-109.714286v-694.857143h755.809524V713.142857h-109.714286z m73.142857-658.285714H170.666667V530.285714h682.666666v-475.428571z m0 512H170.666667v109.714286h682.666666v-109.714286z"  horiz-adv-x="1024" />
      
      <glyph glyph-name="tingche" unicode="&#59387;" d="M938.666667 810.666667H469.333333v-319.390477H234.057143l-49.980953-148.723809H85.333333V310.85714299999995l67.047619-19.504762L85.333333 256V-42.66666699999996h121.904762v85.333334h524.190476v-85.333334h121.904762V256L778.971429 298.66666699999996l-17.066667 42.666666H938.666667V810.666667zM121.904762 203.58095200000002h73.142857V164.57142899999997h-73.142857v39.009523zM816.761905 164.57142899999997h-73.142857v39.009523h73.142857V164.57142899999997z m-9.752381 73.142857H707.047619v-107.276191h109.714286V-6.095237999999995h-48.761905v85.333333H170.666667v-85.333333h-48.761905V130.43809499999998h109.714286V237.71428600000002h-98.742858l68.266667 36.571428L268.190476 457.142857h201.142857v-115.809524h253.561905l26.819048-67.047619 57.295238-36.571428z m-20.72381 373.028571c0-14.628571-3.657143-26.819048-9.752381-37.790476-6.095238-10.971429-14.628571-19.504762-25.6-25.6-10.971429-6.095238-23.161905-9.752381-37.790476-9.752381h-57.295238V457.142857h-28.038095V682.666667h86.552381c14.628571 0 26.819048-2.438095 37.790476-8.533334 10.971429-6.095238 19.504762-14.628571 25.6-25.6 6.095238-10.971429 8.533333-23.161905 8.533333-37.790476zM707.047619 657.066667h-49.980952v-95.085715H707.047619c15.847619 0 28.038095 3.657143 37.790476 12.190477 8.533333 8.533333 13.409524 19.504762 13.409524 35.352381 0 14.628571-4.87619 26.819048-13.409524 35.35238-8.533333 8.533333-21.942857 12.190476-37.790476 12.190477zM316.952381 237.71428600000002h304.761905v-36.571429H316.952381z"  horiz-adv-x="1024" />
      
      <glyph glyph-name="shimingrenzheng" unicode="&#59385;" d="M746.666667 469.333333c129.6 0 234.666667-105.066667 234.666666-234.666666s-105.066667-234.666667-234.666666-234.666667-234.666667 105.066667-234.666667 234.666667 105.066667 234.666667 234.666667 234.666666z m-277.333334-64v-64h-181.333333a138.666667 138.666667 0 0 1-138.581333-133.696L149.333333 202.666667V0H85.333333v202.666667a202.666667 202.666667 0 0 0 202.666667 202.666666H469.333333z m277.333334 0a170.666667 170.666667 0 1 1 0-341.333333 170.666667 170.666667 0 0 1 0 341.333333z m76.181333-85.717333l45.248-45.248-150.464-150.464L618.666667 222.869333l45.248 45.248 53.717333-53.696 105.216 105.194667zM384 768a149.333333 149.333333 0 0 0 5.12-298.581333L384 469.333333a149.333333 149.333333 0 0 0-5.12 298.581334L384 768z m0-64a85.333333 85.333333 0 1 1 0-170.666667 85.333333 85.333333 0 0 1 0 170.666667z"  horiz-adv-x="1024" />
      
      <glyph glyph-name="zengpiaoguanli" unicode="&#59386;" d="M234.666667 746.666667h87.466666c29.866667-51.2 85.333333-85.333333 147.2-85.333334s117.333333 34.133333 147.2 85.333334H704v-384h64V810.666667h-194.133333c-10.666667-49.066667-53.333333-85.333333-104.533334-85.333334s-93.866667 36.266667-104.533333 85.333334H170.666667v-853.333334h362.666666v64H234.666667V746.666667zM298.666667 576h341.333333v-64H298.666667zM836.266667 309.333333h-202.666667L533.333333 132.266667l102.4-174.933334h202.666667l102.4 174.933334-104.533333 177.066666zM800 21.333333h-128l-64 110.933334 64 110.933333h128l64-110.933333-64-110.933334zM736 138.666667m-42.666667 0a42.666667 42.666667 0 1 1 85.333334 0 42.666667 42.666667 0 1 1-85.333334 0Z"  horiz-adv-x="1024" />
      
      <glyph glyph-name="rili_tianchong" unicode="&#59384;" d="M778.666667 725.333333V810.666667h-64v-85.333334h-384V810.666667h-64v-85.333334h-128v-725.333333h768V725.333333h-128zM320 341.333333h-106.666667v106.666667h106.666667v-106.666667z m512 213.333334H213.333333v64h618.666667v-64z"  horiz-adv-x="1024" />
      
      <glyph glyph-name="zengpiao" unicode="&#59383;" d="M938.666667 490.666667V725.333333H85.333333v-234.666666c46.933333 0 85.333333-38.4 85.333334-85.333334s-38.4-85.333333-85.333334-85.333333v-277.333333h853.333334V320c-46.933333 0-85.333333 38.4-85.333334 85.333333s38.4 85.333333 85.333334 85.333334z m-448 27.733333c-25.6 21.333333-55.466667 36.266667-87.466667 36.266667h-10.666667C341.333333 554.666667 298.666667 512 298.666667 458.666667s42.666667-96 93.866666-96H426.666667l-89.6-106.666667 49.066666-40.533333 102.4 123.733333V106.666667H149.333333v164.266666l2.133334 2.133334C200.533333 296.533333 234.666667 347.733333 234.666667 405.333333v4.266667c-2.133333 55.466667-34.133333 104.533333-83.2 128l-2.133334 2.133333V661.333333h341.333334v-142.933333z m-10.666667-91.733333h-87.466667c-14.933333 0-29.866667 12.8-29.866666 32s14.933333 32 29.866666 32h10.666667c14.933333 0 36.266667-10.666667 57.6-34.133334 8.533333-8.533333 14.933333-19.2 19.2-29.866666zM874.666667 539.733333l-2.133334-2.133333C823.466667 514.133333 789.333333 462.933333 789.333333 405.333333v-4.266666c2.133333-55.466667 34.133333-104.533333 83.2-128l2.133334-2.133334V106.666667H554.666667V339.2l102.4-123.733333 49.066666 40.533333-87.466666 106.666667h36.266666c51.2 0 93.866667 42.666667 93.866667 96S704 554.666667 652.8 554.666667h-10.666667c-32 0-61.866667-14.933333-87.466666-36.266667V661.333333h320v-121.6zM565.333333 426.666667c4.266667 10.666667 10.666667 21.333333 19.2 29.866666 21.333333 23.466667 42.666667 34.133333 57.6 34.133334h10.666667c14.933333 0 29.866667-12.8 29.866667-32s-14.933333-32-29.866667-32h-87.466667z"  horiz-adv-x="1024" />
      
      <glyph glyph-name="a-mimasuo" unicode="&#59382;" d="M480 341.333333h64v-106.666666h-64zM746.666667 490.666667v106.666666c0 130.133333-104.533333 234.666667-234.666667 234.666667S277.333333 727.466667 277.333333 597.333333v-106.666666H149.333333v-533.333334h725.333334V490.666667h-128z m-405.333334 106.666666c0 93.866667 76.8 170.666667 170.666667 170.666667s170.666667-76.8 170.666667-170.666667v-106.666666H341.333333v106.666666z m469.333334-573.866666H213.333333V424.533333h597.333334v-401.066666z"  horiz-adv-x="1024" />
      
      <glyph glyph-name="bangdingka" unicode="&#59378;" d="M938.666667 725.333333v-277.333333h-64v64H149.333333v-405.333333h384v-64H85.333333V725.333333h853.333334zM149.333333 576h725.333334v85.333333H149.333333v-85.333333z m565.333334-533.333333v160H554.666667v64h160V426.666667h64v-160H938.666667v-64h-160V42.666667h-64z"  horiz-adv-x="1024" />
      
      <glyph glyph-name="qianbao" unicode="&#59379;" d="M85.333333 725.333333v-682.666666h853.333334V725.333333H85.333333z m64-277.333333h234.666667c36.266667 0 64-27.733333 64-64s-27.733333-64-64-64H149.333333v128z m725.333334-341.333333H149.333333v149.333333h234.666667c70.4 0 128 57.6 128 128s-57.6 128-128 128H149.333333v149.333333h725.333334v-554.666666z"  horiz-adv-x="1024" />
      
      <glyph glyph-name="chongzhi" unicode="&#59380;" d="M149.333333 661.333333h725.333334v-170.666666h64V725.333333H85.333333v-682.666666h533.333334v64H149.333333v149.333333h234.666667a128 128 0 0 1 0 256H149.333333v149.333333z m234.666667-341.333333H149.333333v128h234.666667a64 64 0 1 0 0-128z m234.666667-1.28L790.613333 490.666667l171.968-171.946667L917.333333 273.429333l-94.72 94.72V42.666667h-64V368.170667l-94.698666-94.72L618.666667 318.698667z"  horiz-adv-x="1024" />
      
      <glyph glyph-name="mendian" unicode="&#59381;" d="M128 789.333333v-810.666666h768V789.333333H128z m448-746.666666h-128v192c0 36.266667 27.733333 64 64 64s64-27.733333 64-64v-192z m256 0h-192v192c0 70.4-57.6 128-128 128s-128-57.6-128-128v-192H192V475.733333c12.8-4.266667 27.733333-6.4 42.666667-6.4 57.6 0 106.666667 27.733333 138.666666 70.4 32-42.666667 81.066667-70.4 138.666667-70.4s106.666667 27.733333 138.666667 70.4c32-42.666667 81.066667-70.4 138.666666-70.4 14.933333 0 29.866667 2.133333 42.666667 6.4V42.666667z m0 499.2c-12.8-6.4-27.733333-8.533333-42.666667-8.533334-59.733333 0-106.666667 46.933333-106.666666 106.666667h-64c0-59.733333-46.933333-106.666667-106.666667-106.666667s-106.666667 46.933333-106.666667 106.666667h-64c0-59.733333-46.933333-106.666667-106.666666-106.666667-14.933333 0-29.866667 2.133333-42.666667 8.533334V725.333333h640v-183.466666z"  horiz-adv-x="1024" />
      
      <glyph glyph-name="jifenshangchuan" unicode="&#59377;" d="M816.761905 274.285714h-60.952381V810.666667H146.285714v-707.047619h331.580953l101.180952-146.285715H889.904762V201.14285700000005c0 40.228571-31.695238 73.142857-73.142857 73.142857z m-340.114286-59.733333c-23.161905-17.066667-30.47619-47.542857-21.942857-73.142857H182.857143V772.87619h536.380952V274.285714h-36.571428V414.47619c0 30.47619-24.380952 54.857143-54.857143 54.857143S572.952381 444.952381 572.952381 414.47619v-219.428571l-3.657143 4.876191c-8.533333 12.190476-19.504762 20.72381-32.914286 24.380952-19.504762 7.314286-41.447619 3.657143-59.733333-9.752381zM853.333333-6.095237999999995H598.552381l-106.057143 152.380952c-8.533333 12.190476-6.095238 29.257143 6.095238 39.009524 13.409524 9.752381 31.695238 7.314286 41.447619-6.095238L609.52381 79.23809500000004V414.47619c0 9.752381 8.533333 18.285714 18.285714 18.285715s18.285714-8.533333 18.285714-18.285715V237.71428600000002h170.666667c20.72381 0 36.571429-15.847619 36.571428-36.571429v-207.238095zM365.714286 713.142857c-67.047619 0-121.904762-54.857143-121.904762-121.904762 0-28.038095 8.533333-52.419048 24.380952-73.142857-15.847619-20.72381-24.380952-45.104762-24.380952-73.142857 0-67.047619 54.857143-121.904762 121.904762-121.904762s121.904762 54.857143 121.904762 121.904762c0 28.038095-8.533333 52.419048-24.380953 73.142857 15.847619 20.72381 24.380952 45.104762 24.380953 73.142857 0 67.047619-54.857143 121.904762-121.904762 121.904762z m0-353.523809c-47.542857 0-85.333333 37.790476-85.333334 85.333333 0 17.066667 4.87619 34.133333 14.628572 47.542857 19.504762-14.628571 45.104762-23.161905 70.704762-23.161905s51.2 8.533333 70.704762 23.161905c8.533333-13.409524 14.628571-29.257143 14.628571-47.542857 0-47.542857-37.790476-85.333333-85.333333-85.333333z m-43.885715 158.47619c13.409524 7.314286 28.038095 12.190476 43.885715 12.190476s31.695238-4.87619 43.885714-12.190476c-13.409524-7.314286-28.038095-12.190476-43.885714-12.190476s-31.695238 4.87619-43.885715 12.190476z m114.590477 25.6C416.914286 558.32381 392.533333 566.857143 365.714286 566.857143s-51.2-8.533333-70.704762-23.161905c-9.752381 13.409524-14.628571 30.47619-14.628572 47.542857 0 47.542857 37.790476 85.333333 85.333334 85.333334s85.333333-37.790476 85.333333-85.333334c0-17.066667-4.87619-34.133333-14.628571-47.542857z"  horiz-adv-x="1024" />
      
      <glyph glyph-name="ALSO" unicode="&#59374;" d="M2646.450424 272.135758V449.473939H518.640485v-177.338181H341.333333v-266.022788h975.220364v177.400242h532.076606v-177.338182h975.220364v266.022788l-177.400243-0.06206z m-797.913212 0H1316.460606v88.684606h532.076606v-88.684606zM2583.893333 765.176242h-2.420363v0.031031c-19.083636 0-29.882182-9.774545-29.882182-20.635152 0-10.860606 7.168-16.508121 21.47297-19.114666a1165.715394 1165.715394 0 0 0 27.182545-5.151031c28.64097-5.492364 42.728727-17.408 42.728727-40.649697s-20.697212-44.776727-59.578182-44.776727c-38.849939 0-59.919515 19.921455-60.416 49.12097h28.60994c1.303273-16.601212 12.132848-25.941333 30.502788-25.941334h2.389333c19.083636 0 29.882182 9.743515 29.882182 20.635152 0 10.860606-7.19903 13.839515-21.47297 16.44606l-9.371151 1.799758a651.326061 651.326061 0 0 0-15.608243 2.823758l-2.234182 0.434424c-28.609939 5.368242-42.697697 20.200727-42.697697 43.442424 0 23.272727 20.728242 44.807758 59.578182 44.807758 38.818909 0 59.888485-19.983515 60.416-49.214061h-28.609939c-1.303273 16.601212-12.101818 25.941333-30.502788 25.941333z m130.761697 17.066667c9.433212 3.847758 19.549091 5.771636 29.758061 5.709576a77.668848 77.668848 0 0 0 78.196364-77.110303 78.196364 78.196364 0 0 0-156.423758 0 77.668848 77.668848 0 0 0 48.469333 71.400727z m0.031031-115.898182c8.812606-5.802667 19.176727-8.874667 29.72703-8.781575h-0.03103a53.123879 53.123879 0 0 1 52.875636 53.27903 53.248 53.248 0 1 1-82.540606-44.497455zM2296.738909 785.37697h-28.113454l-64.294788-149.224728h28.082424l15.670303 36.305455h72.052364l15.639272-36.305455h28.144485l-64.294788 149.255758h-2.885818z m-38.539636-89.305212l25.972363 60.043636 25.941334-60.043636h-51.913697z m126.851879 89.305212h25.227636v-125.610667h97.217939v-23.489939H2385.051152V785.37697z"  horiz-adv-x="3165" />
      
      <glyph glyph-name="ALSO-cai" unicode="&#59375;" d="M2646.450424 272.135758V449.473939H518.640485v-177.338181H341.333333v-266.022788h975.220364v177.400242h532.076606v-177.338182h975.220364v266.022788l-177.400243-0.06206z m-797.913212 0H1316.460606v88.684606h532.076606v-88.684606zM2583.893333 765.176242h-2.420363v0.031031c-19.083636 0-29.882182-9.774545-29.882182-20.635152 0-10.860606 7.168-16.508121 21.47297-19.114666a1165.715394 1165.715394 0 0 0 27.182545-5.151031c28.64097-5.492364 42.728727-17.408 42.728727-40.649697s-20.697212-44.776727-59.578182-44.776727c-38.849939 0-59.919515 19.921455-60.416 49.12097h28.60994c1.303273-16.601212 12.132848-25.941333 30.502788-25.941334h2.389333c19.083636 0 29.882182 9.743515 29.882182 20.635152 0 10.860606-7.19903 13.839515-21.47297 16.44606l-9.371151 1.799758a651.326061 651.326061 0 0 0-15.608243 2.823758l-2.234182 0.434424c-28.609939 5.368242-42.697697 20.200727-42.697697 43.442424 0 23.272727 20.728242 44.807758 59.578182 44.807758 38.818909 0 59.888485-19.983515 60.416-49.214061h-28.609939c-1.303273 16.601212-12.101818 25.941333-30.502788 25.941333z m130.761697 17.066667c9.433212 3.847758 19.549091 5.771636 29.758061 5.709576a77.668848 77.668848 0 0 0 78.196364-77.110303 78.196364 78.196364 0 0 0-156.423758 0 77.668848 77.668848 0 0 0 48.469333 71.400727z m0.031031-115.898182c8.812606-5.802667 19.176727-8.874667 29.72703-8.781575h-0.03103a53.123879 53.123879 0 0 1 52.875636 53.27903 53.248 53.248 0 1 1-82.540606-44.497455zM2296.738909 785.37697h-28.113454l-64.294788-149.224728h28.082424l15.670303 36.305455h72.052364l15.639272-36.305455h28.144485l-64.294788 149.255758h-2.885818z m-38.539636-89.305212l25.972363 60.043636 25.941334-60.043636h-51.913697z m126.851879 89.305212h25.227636v-125.610667h97.217939v-23.489939H2385.051152V785.37697z"  horiz-adv-x="3165" />
      
      <glyph glyph-name="ALSO-bai" unicode="&#59376;" d="M2646.450424 272.135758V449.473939H518.640485v-177.338181H341.333333v-266.022788h975.220364v177.400242h532.076606v-177.338182h975.220364v266.022788l-177.400243-0.06206z m-797.913212 0H1316.460606v88.684606h532.076606v-88.684606zM2583.893333 765.176242h-2.420363v0.031031c-19.083636 0-29.882182-9.774545-29.882182-20.635152 0-10.860606 7.168-16.508121 21.47297-19.114666a1165.715394 1165.715394 0 0 0 27.182545-5.151031c28.64097-5.492364 42.728727-17.408 42.728727-40.649697s-20.697212-44.776727-59.578182-44.776727c-38.849939 0-59.919515 19.921455-60.416 49.12097h28.60994c1.303273-16.601212 12.132848-25.941333 30.502788-25.941334h2.389333c19.083636 0 29.882182 9.743515 29.882182 20.635152 0 10.860606-7.19903 13.839515-21.47297 16.44606l-9.371151 1.799758a651.326061 651.326061 0 0 0-15.608243 2.823758l-2.234182 0.434424c-28.609939 5.368242-42.697697 20.200727-42.697697 43.442424 0 23.272727 20.728242 44.807758 59.578182 44.807758 38.818909 0 59.888485-19.983515 60.416-49.214061h-28.609939c-1.303273 16.601212-12.101818 25.941333-30.502788 25.941333z m130.761697 17.066667c9.433212 3.847758 19.549091 5.771636 29.758061 5.709576a77.668848 77.668848 0 0 0 78.196364-77.110303 78.196364 78.196364 0 0 0-156.423758 0 77.668848 77.668848 0 0 0 48.469333 71.400727z m0.031031-115.898182c8.812606-5.802667 19.176727-8.874667 29.72703-8.781575h-0.03103a53.123879 53.123879 0 0 1 52.875636 53.27903 53.248 53.248 0 1 1-82.540606-44.497455zM2296.738909 785.37697h-28.113454l-64.294788-149.224728h28.082424l15.670303 36.305455h72.052364l15.639272-36.305455h28.144485l-64.294788 149.255758h-2.885818z m-38.539636-89.305212l25.972363 60.043636 25.941334-60.043636h-51.913697z m126.851879 89.305212h25.227636v-125.610667h97.217939v-23.489939H2385.051152V785.37697z"  horiz-adv-x="3165" />
      
      <glyph glyph-name="xiangji" unicode="&#59372;" d="M597.333333 640V736H85.333333V42.666667h853.333334V640H597.333333z m277.333334-533.333333H149.333333V672h384V576h341.333334v-469.333333zM320 352c0-100.266667 81.066667-181.333333 181.333333-181.333333s181.333333 81.066667 181.333334 181.333333-81.066667 181.333333-181.333334 181.333333-181.333333-81.066667-181.333333-181.333333z m294.4 0c0-61.866667-51.2-113.066667-113.066667-113.066667s-113.066667 51.2-113.066666 113.066667 51.2 113.066667 113.066666 113.066667 113.066667-51.2 113.066667-113.066667zM704 746.666667h149.333333v-64h-149.333333z"  horiz-adv-x="1024" />
      
      <glyph glyph-name="lishijilu" unicode="&#59373;" d="M661.333333 597.333333c-177.066667 0-320-142.933333-320-320s142.933333-320 320-320 320 142.933333 320 320-142.933333 320-320 320z m0-576c-140.8 0-256 115.2-256 256s115.2 256 256 256 256-115.2 256-256-115.2-256-256-256zM693.333333 469.333333h-64v-204.8l115.2-117.333333 46.933334 46.933333-98.133334 96zM128 405.333333h149.333333v-64H128zM128 597.333333h256v-64H128zM128 789.333333h426.666667v-64H128z"  horiz-adv-x="1024" />
      
      <glyph glyph-name="xiayishou" unicode="&#59371;" d="M469.333333 465.792V687.509333L981.333333 391.893333 469.333333 96.298667V317.994667L85.333333 96.298667V687.488l384-221.696z"  horiz-adv-x="1024" />
      
      <glyph glyph-name="fanyi" unicode="&#59370;" d="M618.666667 768H128v-490.666667h490.666667V768z m-136.533334-366.933333c-44.8 10.666667-81.066667 29.866667-110.933333 55.466666-29.866667-23.466667-66.133333-42.666667-108.8-55.466666-4.266667 8.533333-14.933333 23.466667-21.333333 32 40.533333 10.666667 76.8 25.6 104.533333 49.066666-25.6 27.733333-44.8 64-59.733333 104.533334h-40.533334V618.666667h108.8v42.666666h34.133334v-42.666666h110.933333v-32h-40.533333c-14.933333-40.533333-34.133333-74.666667-59.733334-102.4 27.733333-21.333333 64-38.4 106.666667-49.066667-8.533333-8.533333-19.2-23.466667-23.466667-34.133333zM324.266667 584.533333c12.8-29.866667 27.733333-57.6 49.066666-78.933333 19.2 21.333333 36.266667 49.066667 46.933334 78.933333h-96zM682.666667 448v-64h149.333333v-320H512v149.333333h-64v-213.333333h448V448zM640 106.666667l12.8 44.8h64l12.8-44.8h40.533333l-61.866666 181.333333h-44.8l-64-181.333333H640z m44.8 145.066666l23.466667-72.533333H661.333333l23.466667 72.533333zM787.2 512h64c-10.666667 89.6-81.066667 160-168.533333 168.533333v-64c53.333333-8.533333 96-51.2 104.533333-104.533333zM258.133333 213.333333h-64c10.666667-96 91.733333-170.666667 189.866667-170.666666v64c-64 0-115.2 46.933333-125.866667 106.666666z"  horiz-adv-x="1024" />
      
      <glyph glyph-name="naozhong" unicode="&#59368;" d="M512 746.666667A394.666667 394.666667 0 1 0 512-42.666667a394.666667 394.666667 0 0 0 0 789.333334zM512 682.666667a330.666667 330.666667 0 1 1 0-661.333334A330.666667 330.666667 0 0 1 512 682.666667z m32-85.333334v-232.106666l139.946667-139.946667-45.226667-45.226667-158.72 158.72V597.333333h64z m256.554667 215.381334l150.826666-150.826667-45.226666-45.226667-150.869334 150.826667 45.226667 45.226667z m-577.109334 0l45.269334-45.226667-150.826667-150.869333-45.269333 45.226666 150.826666 150.869334z"  horiz-adv-x="1024" />
      
      <glyph glyph-name="liebiao" unicode="&#59369;" d="M181.333333 128a53.333333 53.333333 0 1 0 0-106.666667 53.333333 53.333333 0 0 0 0 106.666667z m714.666667-21.333333V42.666667H320v64H896zM181.333333 426.666667a53.333333 53.333333 0 1 0 0-106.666667 53.333333 53.333333 0 0 0 0 106.666667z m714.666667-21.333334V341.333333H320v64H896z m-714.666667 341.333334a53.333333 53.333333 0 1 0 0-106.666667 53.333333 53.333333 0 0 0 0 106.666667zM896 725.333333v-64H320V725.333333H896z"  horiz-adv-x="1024" />
      
      <glyph glyph-name="xiaoxi" unicode="&#59367;" d="M917.333333 149.333333l-37.333333 64L768 405.333333v170.666667c0 141.376-114.624 256-256 256S256 717.376 256 576v-170.666667l-112-192L106.666667 149.333333h810.666666z m-405.333333-192a192.085333 192.085333 0 0 0-181.077333 128h362.154666A192.085333 192.085333 0 0 0 512-42.666667z"  horiz-adv-x="1024" />
      
      <glyph glyph-name="a-filloff" unicode="&#59365;" d="M960 494.933333l-311.466667 40.533334L512 821.333333l-136.533333-283.733333-311.466667-42.666667L292.266667 277.333333 234.666667-32l277.333333 149.333333 277.333333-149.333333L731.733333 277.333333 960 494.933333zM512 192l-189.866667-102.4 38.4 213.333333-155.733333 149.333334 213.333333 27.733333 93.866667 194.133333 93.866667-194.133333 213.333333-27.733333-155.733333-149.333334 38.4-213.333333L512 192z"  horiz-adv-x="1024" />
      
      <glyph glyph-name="a-fillon" unicode="&#59366;" d="M512 821.333333l135.744-284.629333L960 495.381333 731.626667 278.186667 788.885333-32 512 118.378667 235.114667-32l57.258666 310.165333L64 495.36l312.256 41.322667L512 821.333333z"  horiz-adv-x="1024" />
      
      <glyph glyph-name="yuanqudaolan" unicode="&#59360;" d="M526.222222 810.666667c-236.088889 0-426.666667-190.577778-426.666666-426.666667s190.577778-426.666667 426.666666-426.666667 426.666667 190.577778 426.666667 426.666667-190.577778 426.666667-426.666667 426.666667z m0-824.888889c-219.022222 0-398.222222 179.2-398.222222 398.222222s179.2 398.222222 398.222222 398.222222 398.222222-179.2 398.222222-398.222222-179.2-398.222222-398.222222-398.222222zM324.266667 173.511111l270.222222 130.844445 130.844444 270.222222-270.222222-128-130.844444-273.066667z m341.333333 341.333333L574.577778 327.111111l-190.577778-91.022222 91.022222 190.577778 190.577778 88.177777z"  horiz-adv-x="1052" />
      
      <glyph glyph-name="jifenduiquan" unicode="&#59361;" d="M792.380952 676.571429H670.47619c0 87.771429-70.704762 158.47619-158.47619 158.47619s-158.47619-70.704762-158.47619-158.47619H231.619048l-97.52381-670.476191h755.809524l-97.52381 670.476191zM512 798.47619c67.047619 0 121.904762-54.857143 121.904762-121.904761H390.095238c0 67.047619 54.857143 121.904762 121.904762 121.904761zM263.314286 640H353.52381v-85.333333h36.571428v85.333333h243.809524v-85.333333h36.571428v85.333333h90.209524l86.552381-597.333333h-670.47619l86.552381 597.333333zM597.333333 420.571429c-29.257143 0-57.295238-9.752381-79.238095-25.6-21.942857 15.847619-49.980952 25.6-79.238095 25.6-74.361905 0-134.095238-59.733333-134.095238-134.095239s59.733333-134.095238 134.095238-134.095238c29.257143 0 57.295238 9.752381 79.238095 25.6 21.942857-15.847619 49.980952-25.6 79.238095-25.6 74.361905 0 134.095238 59.733333 134.095238 134.095238s-59.733333 134.095238-134.095238 134.095239z m-106.057143-215.771429c-14.628571-9.752381-32.914286-15.847619-52.419047-15.847619-53.638095 0-97.52381 43.885714-97.52381 97.523809s43.885714 97.52381 97.52381 97.52381c19.504762 0 37.790476-6.095238 52.419047-15.847619-17.066667-21.942857-28.038095-51.2-28.038095-81.676191s10.971429-59.733333 28.038095-81.67619z m26.819048 24.380952c-10.971429 15.847619-18.285714 36.571429-18.285714 57.295238s7.314286 41.447619 18.285714 57.295239c10.971429-15.847619 18.285714-35.352381 18.285714-57.295239s-7.314286-41.447619-18.285714-57.295238zM597.333333 188.95238099999995c-19.504762 0-37.790476 6.095238-52.419047 15.847619 17.066667 23.161905 28.038095 51.2 28.038095 81.67619s-10.971429 59.733333-28.038095 81.676191c14.628571 9.752381 32.914286 15.847619 52.419047 15.847619 53.638095 0 97.52381-43.885714 97.52381-97.52381s-43.885714-97.52381-97.52381-97.523809z"  horiz-adv-x="1024" />
      
      <glyph glyph-name="a-Frame346" unicode="&#59341;" d="M512 810.666667C275.911111 810.666667 85.333333 620.088889 85.333333 384s190.577778-426.666667 426.666667-426.666667 426.666667 190.577778 426.666667 426.666667S748.088889 810.666667 512 810.666667z m34.133333-455.111111h-102.4v-142.222223h-39.822222V557.511111h142.222222c79.644444 0 119.466667-34.133333 119.466667-102.4 0-65.422222-39.822222-99.555556-119.466667-99.555555zM605.866667 506.311111c-14.222222 11.377778-34.133333 17.066667-62.577778 17.066667h-99.555556v-136.533334h99.555556c28.444444 0 48.355556 5.688889 62.577778 17.066667 14.222222 11.377778 19.911111 28.444444 19.911111 51.2s-8.533333 42.666667-19.911111 51.2z"  horiz-adv-x="1024" />
      
      <glyph glyph-name="a-Frame350" unicode="&#59342;" d="M142.222222 412.444444h341.333334V753.777778H142.222222v-341.333334zM170.666667 725.333333h284.444444v-284.444444H170.666667V725.333333zM142.222222 14.222222h341.333334V355.555556H142.222222v-341.333334z m28.444445 312.888889h284.444444v-284.444444H170.666667V327.111111zM540.444444 753.777778v-341.333334h341.333334V753.777778H540.444444z m312.888889-312.888889H568.888889V725.333333h284.444444v-284.444444zM540.444444 14.222222h341.333334V355.555556H540.444444v-341.333334z m312.888889 28.444445h-142.222222v142.222222h142.222222v-142.222222zM568.888889 327.111111h284.444444v-113.777778h-170.666666v-170.666666h-113.777778V327.111111z"  horiz-adv-x="1024" />
      
      <glyph glyph-name="a-Frame345" unicode="&#59343;" d="M512 716.8L102.4 51.2h819.2L512 716.8z m-159.288889-631.466667l159.288889 258.844445 159.288889-258.844445H352.711111zM512 409.6l-199.111111-324.266667H162.133333L512 651.377778l349.866667-566.044445H711.111111l-199.111111 324.266667z"  horiz-adv-x="1024" />
      
      <glyph glyph-name="a-Frame347" unicode="&#59344;" d="M398.222222 725.333333H85.333333v-71.111111c68.266667-56.888889 113.777778-145.066667 113.777778-241.777778s-45.511111-184.888889-113.777778-241.777777V99.555556h796.444445V725.333333H398.222222z m-28.444444-591.644444H119.466667V156.444444c71.111111 62.577778 113.777778 156.444444 113.777777 256s-42.666667 193.422222-113.777777 256v22.755556H369.777778v-557.511111z m477.866666 0H398.222222V691.2h449.422222v-557.511111z"  horiz-adv-x="1024" />
      
      <glyph glyph-name="shouji" unicode="&#59339;" d="M810.666667 810.666667v-853.333334H213.333333V810.666667h597.333334zM405.333333 746.666667h-128v-725.333334h469.333334V746.666667h-128v-64H405.333333V746.666667z m234.666667-597.333334v-64H384v64h256z"  horiz-adv-x="1024" />
      
      <glyph glyph-name="huaban" unicode="&#59338;" d="M362.666667 512v-64h119.466666v-53.333333h-108.8v-64h108.8V234.666667h64v96h104.533334v64h-104.533334V448H661.333333v64h-83.2l98.133334 106.666667-46.933334 42.666666-115.2-123.733333-115.2 123.733333-46.933333-42.666666 98.133333-106.666667zM170.666667 832v-896h6.4l168.533333 168.533333L512-64l168.533333 168.533333 168.533334-168.533333h4.266666V832H170.666667z m618.666666-746.666667l-108.8 108.8-168.533333-168.533333-168.533333 168.533333L234.666667 85.333333V768h554.666666v-682.666667z"  horiz-adv-x="1024" />
      
      <glyph glyph-name="stroke3" unicode="&#59337;" d="M928 362.666667v-64h-48.042667a223.488 223.488 0 0 0 48.042667-138.666667c0-121.685333-97.024-220.714667-217.941333-223.914667L704-64v64a160 160 0 0 1 128 256.064V202.666667h-64V362.666667h160zM768 810.666667v-362.666667h-64V746.666667h-128v-64H362.666667V746.666667h-128v-725.333334h170.666666v-64H170.666667V810.666667h597.333333z m-64-426.666667v-64a160 160 0 0 1-128.042667-256L576 117.333333h64V-42.666667h-160v64l48.064-0.021333A223.573333 223.573333 0 0 0 480 160c0 121.685333 97.024 220.714667 217.941333 223.914667L704 384z"  horiz-adv-x="1024" />
      
      <glyph glyph-name="pengyouquan-fill" unicode="&#59336;" d="M684.266667 493.482667V772.522667s-136.618667 73.216-296.064 16.768l296.064-295.808z m25.856-164.16V761.002667s161.493333-73.152 206.997333-250.858667l-206.997333-180.821333z m-86.869334-125.482667L921.365333 484.053333s52.736-85.717333-25.92-280.234666h-272.213333z m-152.234666-35.541333h402.645333s-48.618667-131.690667-222.592-186.069334l-180.053333 186.069334z m-131.413334 88.917333v-262.357333s104.533333-66.944 283.648-21.994667L339.584 257.216z m-232.96-13.568l203.946667 182.912v-416S187.413333 53.333333 106.666667 243.648z m-5.162666 29.248s-46.656 150.485333 18.602666 281.173333h280.533334L101.461333 272.896z m36.224 310.506667s59.008 133.738667 219.456 196.48l191.466666-196.48H137.706667z"  horiz-adv-x="1024" />
      
      <glyph glyph-name="a-48pt-jinggao-miaobian" unicode="&#59334;" d="M512 810.666667c235.648 0 426.666667-191.018667 426.666667-426.666667s-191.018667-426.666667-426.666667-426.666667S85.333333 148.352 85.333333 384 276.352 810.666667 512 810.666667z m0-64C311.701333 746.666667 149.333333 584.298667 149.333333 384s162.368-362.666667 362.666667-362.666667 362.666667 162.368 362.666667 362.666667S712.298667 746.666667 512 746.666667z m0-533.333334a53.333333 53.333333 0 1 0 0-106.666666 53.333333 53.333333 0 0 0 0 106.666666z m32 448v-384h-64V661.333333h64z"  horiz-adv-x="1024" />
      
      <glyph glyph-name="a-48pt-jinggao-tianchong" unicode="&#59335;" d="M512 810.666667c235.648 0 426.666667-191.018667 426.666667-426.666667s-191.018667-426.666667-426.666667-426.666667S85.333333 148.352 85.333333 384 276.352 810.666667 512 810.666667z m0-597.333334a53.333333 53.333333 0 1 1 0-106.666666 53.333333 53.333333 0 0 1 0 106.666666z m32 448h-64v-384h64V661.333333z"  horiz-adv-x="1024" />
      
      <glyph glyph-name="guanbi" unicode="&#59333;" d="M835.328 658.752L556.245333 379.669333l279.082667-279.061333-45.269333-45.269333-279.061334 279.082666L231.893333 55.338667 186.666667 100.608l279.061333 279.061333L186.666667 658.773333 231.914667 704l279.082666-279.061333L790.058667 704z"  horiz-adv-x="1024" />
      
      <glyph glyph-name="a-icon48dianhua-shi" unicode="&#59330;" d="M258.304 789.3504H103.5776c-11.8272-49.664-18.2272-101.376-18.2272-154.624 0-368.2304 298.496-666.7264 666.6752-666.7264 57.5488 0 113.3568 7.2704 166.6048 20.992v223.4368l-192 42.7008-136.0384-111.872a519.5776 519.5776 0 0 0-330.5984 331.776l113.9712 121.3952-42.6496 192-73.216 0.4096 0.2048 0.512"  horiz-adv-x="1024" />
      
      <glyph glyph-name="a-icon48shijian" unicode="&#59331;" d="M512 810.666667C277.333333 810.666667 85.333333 618.666667 85.333333 384s192-426.666667 426.666667-426.666667 426.666667 192 426.666667 426.666667S746.666667 810.666667 512 810.666667z m0-789.333334c-200.533333 0-362.666667 162.133333-362.666667 362.666667S311.466667 746.666667 512 746.666667s362.666667-162.133333 362.666667-362.666667-162.133333-362.666667-362.666667-362.666667zM544 661.333333h-64v-290.133333l157.866667-160 46.933333 46.933333-140.8 138.666667z"  horiz-adv-x="1024" />
      
      <glyph glyph-name="a-icon48weizhi" unicode="&#59332;" d="M853.333333 490.666667c0 187.733333-153.6 341.333333-341.333333 341.333333S170.666667 678.4 170.666667 490.666667c0-76.8 25.6-149.333333 70.4-206.933334L512-74.66666699999996l273.066667 360.533334c42.666667 55.466667 68.266667 128 68.266666 204.8z m-198.4-270.933334L512 32l-142.933333 189.866667-78.933334 102.4c-36.266667 49.066667-57.6 106.666667-57.6 166.4 0 153.6 123.733333 277.333333 277.333334 277.333333s277.333333-123.733333 277.333333-277.333333c0-59.733333-19.2-119.466667-57.6-166.4l-74.666667-104.533334zM512 650.666667c-87.466667 0-160-72.533333-160-160s72.533333-160 160-160 160 72.533333 160 160-72.533333 160-160 160z m0-256c-53.333333 0-96 42.666667-96 96s42.666667 96 96 96 96-42.666667 96-96-42.666667-96-96-96z"  horiz-adv-x="1024" />
      
      <glyph glyph-name="a-icon48rili" unicode="&#59329;" d="M320 810.666667v-85.333334h384V810.666667H768v-85.333334h128v-725.333333H128V725.333333h128V810.666667h64z m512-320h-640v-426.666667h640v426.666667zM362.666667 426.666667v-106.666667H256V426.666667h106.666667z m469.333333 234.666666h-640V554.666667h640V661.333333z"  horiz-adv-x="1024" />
      
      <glyph glyph-name="a-icon48fenxiang" unicode="&#59328;" d="M383.9488 768v-64H192v-640h640v192.0512h64V0h-768v768h255.9488z m512.0512 0v-298.6496h-64v189.44l-463.872-463.872-45.2096 45.2096 463.8208 463.872h-189.44V768H896z"  horiz-adv-x="1024" />
      
      <glyph glyph-name="a-icon128erweima" unicode="&#59323;" d="M128 768v-341.333333h341.333333V768H128z m277.333333-277.333333H192V704h213.333333v-213.333333zM128 341.33333300000004v-341.333333h341.333333V341.33333300000004H128z m277.333333-277.333333H192V277.33333300000004h213.333333v-213.333333zM554.666667 768v-341.333333h341.333333V768H554.666667z m277.333333-277.333333H618.666667V704h213.333333v-213.333333zM554.666667 341.33333300000004h85.333333v-85.333333h-85.333333zM832 341.33333300000004h-128v-149.333333h-149.333333v-192h341.333333V341.33333300000004h-64z m0-149.333333v-128H618.666667v64h149.333333v149.333333h64v-85.333333z"  horiz-adv-x="1024" />
      
      <glyph glyph-name="a-icon128huodong" unicode="&#59324;" d="M88 7.984000000000037L481.352 613.6800000000001 370.496 776.208l46.264 31.552 97.648-143.168 0.576 0.88 0.568-0.88L613.216 807.76l46.264-31.552L548.616 613.6800000000001l393.36-605.704H88z m426.984 554.672l-323.84-498.672H320.24l194.744 299.864 194.72-299.864h129.12l-323.84 498.672z m0-301.624l-127.968-197.04h255.928l-127.96 197.04z"  horiz-adv-x="1024" />
      
      <glyph glyph-name="a-icon128tingche" unicode="&#59325;" d="M512 816c238.592 0 432-193.408 432-432S750.592-48 512-48 80 145.408 80 384 273.408 816 512 816z m0-56C304.32 760 136 591.68 136 384S304.32 8 512 8 888 176.32 888 384 719.68 760 512 760zM560 608a144 144 0 1 0 0-288h-120v-192H384V608h176z m-120-55.968v-176l120-0.032a88 88 0 0 1 2.304 176H560l-120 0.032z"  horiz-adv-x="1024" />
      
      <glyph glyph-name="a-icon48jiastroke" unicode="&#59326;" d="M192 234.666667v-170.666667h170.666667V0H128v234.666667h64z m704 0V0h-234.666667v64h170.666667v170.666667H896z m0 181.333333v-64H128v64h768zM362.666667 768v-64h-170.666667v-170.666667H128V768h234.666667zM896 768v-234.624h-64V704h-170.666667V768H896z"  horiz-adv-x="1024" />
      
      <glyph glyph-name="a-icon128youhuiquan" unicode="&#59327;" d="M928 728v-241.312a96 96 0 1 1 0-189.344v-241.344H96v241.312a96 96 0 1 1 0 189.344V728h832zM872 672H152v-133.312l1.664-0.48a152.064 152.064 0 0 0 110.304-143.52l0.032-2.688a152.064 152.064 0 0 0-110.336-146.24l-1.664-0.448V112h720v133.312l-1.664 0.48a152.064 152.064 0 0 0-110.304 143.52l-0.032 2.688a152.064 152.064 0 0 0 110.336 146.24l1.664 0.448V672z m-448-72v-416H368v416h56z"  horiz-adv-x="1024" />
      
      <glyph glyph-name="bianlidian" unicode="&#59322;" d="M908 756h-800v-184c0.8-48.8 22.4-92 56-120.8v-447.2h688V451.2c33.6 28.8 55.2 72 56 120.8v184zM260 472c-52 0-95.2 45.6-96 100.8V700h688v-128c-0.8-55.2-44-100.8-96-100.8-31.2 0-59.2 15.2-77.6 42.4L632 582.4l-46.4-68c-18.4-27.2-46.4-42.4-77.6-42.4s-59.2 15.2-77.6 42.4L384 582.4l-46.4-68c-18.4-27.2-46.4-42.4-77.6-42.4z m248-56c51.2 0 96.8 26.4 124 67.2 27.2-40.8 72.8-67.2 124-67.2 13.6 0 27.2 2.4 40 5.6v-361.6H712V352H308v-292h-88V421.6c12.8-4 26.4-5.6 40-5.6 51.2 0 96.8 26.4 124 67.2 27.2-40.8 72.8-67.2 124-67.2z m29.6-356V296H656v-236H537.6z m-173.6 0V296h118.4v-236H364z"  horiz-adv-x="1024" />
      
      <glyph glyph-name="a-icon128caidan-2" unicode="&#59297;" d="M480 352v-336H144V352H480z m400 0v-336H544V352h336z m-456-56h-224v-224h224v224z m400 0h-224v-224h224v224zM480 752V416H144V752H480z m-56-56h-224v-224h224v224zM712 768a184 184 0 1 0 0-368 184 184 0 0 0 0 368z m0-56a128 128 0 1 1 0-256 128 128 0 0 1 0 256z"  horiz-adv-x="1024" />
      
      <glyph glyph-name="a-icon128biaoyan" unicode="&#59313;" d="M512 800c32.32 0 63.84-3.68 94.08-10.688-0.32-2.08-0.48-4.256-0.48-6.464V508.8a156 156 0 1 1 62.24-131.744l0.16 12.48V769.76C820.48 708.032 928 558.56 928 384c0-229.76-186.24-416-416-416S96 154.24 96 384 282.24 800 512 800z m0-56C313.184 744 152 582.816 152 384S313.184 24 512 24 872 185.184 872 384c0 115.456-54.848 220.736-143.04 287.36l-4.96 3.712v-286.144l-0.16-13.408-0.032-0.928a212 212 0 1 0-179.968 219.04l5.76-0.96V742.048l-5.856 0.576a364.736 364.736 0 0 1-25.344 1.312L512 744z"  horiz-adv-x="1024" />
      
      <glyph glyph-name="a-icon128jiudian" unicode="&#59315;" d="M200-32V620.8l448 179.2v-359.232L832 512v-544H200zM592 717.28L256 582.88V24h336V717.28z m184-286.976l-128-49.536v-356.736l128-0.032V430.304z m-256-238.304v-56h-192V192h192z m0 160v-56h-192V352h192z m0 160v-56h-192V512h192z"  horiz-adv-x="1056" />
      
      <glyph glyph-name="a-icon128meishi" unicode="&#59316;" d="M944 104v-56H88v56H944zM512 680c238.592 0 432-193.408 432-432v-79.968h-56V248c0 205.568-164.992 372.64-369.792 375.936L512 624c-205.568 0-372.64-164.992-375.936-369.792l-0.064-6.208v-79.968H80V248c0 238.592 193.408 432 432 432z m76.512-121.344c92.704-23.136 169.504-87.328 210.752-172.512l-50.464-24.32c-34.08 70.432-97.44 123.456-173.664 142.496l13.376 54.336zM552 800v-64h-80V800h80z"  horiz-adv-x="1024" />
      
      <glyph glyph-name="a-icon128gouwu" unicode="&#59317;" d="M528 800a160 160 0 0 0 160-160h128l96-672h-768l96 672h128a160 160 0 0 0 160 160z m-160-216H288.576l-80-560h638.848l-80 560H688v-96h-56v96h-208v-96H368v96z m352-170.4v-62.912a450.24 450.24 0 0 0-192-42.688 450.24 450.24 0 0 0-192 42.688v62.912a394.24 394.24 0 0 1 192-49.6 394.24 394.24 0 0 1 192 49.6z m-192 330.4a104 104 0 0 1-103.84-98.112L424 640h208a104 104 0 0 1-98.112 103.84L528 744z"  horiz-adv-x="1056" />
      
      <glyph glyph-name="a-icon128yundong" unicode="&#59318;" d="M352 56H184V712H352v-240h320v240h168v-656H672v256H352v-256zM784 656h-56v-544h56v544z m-488 0H240v-544h56v544z m656-80v-400H896V576h56zM128 576v-400H72V576H128z m544-160H352v-48h320V416z"  horiz-adv-x="1024" />
      
      <glyph glyph-name="a-icon128yishu" unicode="&#59319;" d="M864 800v-832H208V800H864z m-56-56h-544v-720h544V744zM320 489.792l248-143.168 184 106.208-0.032-52.832h0.032v-320H320V489.792z m48-92.352v-261.44l328 0.032v72.032L368 397.44z m328-41.504l-72-41.632 72-41.568v83.2zM612 680a96 96 0 1 0 0-192 96 96 0 0 0 0 192z m0-56a40 40 0 1 1 0-80 40 40 0 0 1 0 80z"  horiz-adv-x="1056" />
      
      <glyph glyph-name="a-icon128qingcan" unicode="&#59320;" d="M108 788l661.568-182.72s19.136 35.744 73.792 35.744c86.528 0 92.64-88.896 92.64-141.024 0-297.76-242.24-540-540-540-26.24 0-49.408 12.672-64 32.16-1.28 0.16-224 795.84-224 795.84z m80.64-80.352l37.952-135.36 7.712-27.552 7.744-27.584 7.328-26.112c14.528 3.808 29.664 5.44 45.056 4.8 77.888-3.2 141.824-66.848 145.408-144.704a152.096 152.096 0 0 0-108.224-152.8c24.416-86.752 42.944-152.32 50.272-177.664a23.168 23.168 0 0 1 14.112-4.672c266.88 0 484 217.12 484 484 0 12.64 0 88-40 88-11.264 0-20.352-3.584-27.264-10.72l-0.736 6.72c2.56-19.264 4-48.32 4-68a436.096 436.096 0 0 0-270.4-403.424l-4.928-2.016-20.64 52.064a380.096 380.096 0 0 1 238.432 387.648l-3.84 1.056-263.872 72.864-0.416-1.6a106.496 106.496 0 0 0-112.48-73.44 106.88 106.88 0 0 0-95.104 97.952 106.912 106.912 0 0 0 2.88 33.728z m77.376-270.176l-1.504-0.384c18.24-65.12 35.968-128.096 51.904-184.8a96.032 96.032 0 0 1 67.488 96.288c-2.24 48.832-42.912 89.28-91.776 91.328a96.896 96.896 0 0 1-26.112-2.432zM576 560a112 112 0 1 0 0-224 112 112 0 0 0 0 224z m0-56c-30.88 0-56-25.12-56-56s25.12-56 56-56 56 25.12 56 56-25.12 56-56 56z m-237.376 147.2a50.88 50.88 0 0 1 44.896-46.336 50.496 50.496 0 0 1 53.28 34.24l-97.152 26.848a51.168 51.168 0 0 1-1.024-14.784z"  horiz-adv-x="1024" />
      
      <glyph glyph-name="a-icon128shenghuofangshi" unicode="&#59321;" d="M315.84 723.136l2.112-5.504-0.288 0.8 105.184-264.928 261.664 54.208 36.64-106.368 46.784 8.704c46.784 9.696 99.648-15.744 117.824-58.656l1.984-5.216 0.768-2.272 27.488-87.552-136.128-25.28 76.896-223.072h-59.264l-73.28 212.704-127.584-23.68L220.864 125.12 180.768 8H121.6L251.392 387.2 106.112 767.072l94.144 18.176A103.904 103.904 0 0 0 315.84 723.2z m-33.216-417.6l-40.864-119.36 80.608 15.392-39.744 103.936z m105.568 83.52l-71.808-15.04 61.76-161.44 102.784 19.84 104.544 19.456 120.096 22.944-21.568 62.624-256.32-47.84-39.488 99.424z m396.608-33.12l-4.256-0.48-40.96-7.616 21.536-62.4 82.112 15.712-8.16 25.984c-5.312 16.96-28.672 30.272-50.24 28.8z m-137.248 87.264l-203.712-42.56 18.88-47.52 202.816 37.856-17.984 52.224zM215.392 730.912l-4.544-0.64-28.608-5.504 113.792-297.536 71.168 14.72-101.696 256.064-1.056 2.88A47.904 47.904 0 0 1 215.36 730.88z"  horiz-adv-x="1024" />
      
      <glyph glyph-name="stroke2" unicode="&#59314;" d="M554.666667 768v-341.333333h341.333333v-85.333334H554.666667v-341.333333h-85.333334V341.333333H128v85.333334h341.333333V768h85.333334z"  horiz-adv-x="1024" />
      
      <glyph glyph-name="stroke1" unicode="&#59296;" d="M128 426.666667h768v-85.333334H128z"  horiz-adv-x="1024" />
      
      <glyph glyph-name="zhuxiao" unicode="&#59311;" d="M416 691.541333v-66.730666c-123.84-40.384-213.333333-156.8-213.333333-294.144C202.666667 159.829333 341.162667 21.333333 512 21.333333s309.333333 138.496 309.333333 309.333334c0 137.322667-89.493333 253.76-213.333333 294.144V691.541333c159.68-42.368 277.333333-187.882667 277.333333-360.874666C885.333333 124.48 718.186667-42.666667 512-42.666667S138.666667 124.48 138.666667 330.666667c0 173.013333 117.674667 318.506667 277.333333 360.874666zM544 810.666667v-298.666667h-64V810.666667h64z"  horiz-adv-x="1024" />
      
      <glyph glyph-name="a-icon48weibostroke" unicode="&#59312;" d="M491.562667 601.514667c16.469333-18.261333 27.861333-46.805333 20.437333-78.848 101.12 32.682667 183.210667 25.045333 206.293333-24.405334 11.861333-25.472 4.053333-57.6-18.645333-90.453333l4.352-2.474667c96-32 128-78.208 128-138.666666 0-123.733333-200.277333-224-394.666667-224S85.333333 142.933333 85.333333 266.666667c0 86.826667 56.96 167.68 110.208 223.616l9.088 9.386666 8.96 8.789334 4.352 4.266666 8.618667 7.978667 4.181333 3.84c100.693333 90.666667 217.472 125.098667 260.821334 76.970667z m-218.026667-124.586667C199.338667 410.154667 149.333333 333.354667 149.333333 266.666667c0-80.768 124.544-160 288-160 171.904 0 330.666667 86.528 330.666667 160 0 42.666667-53.333333 81.792-160 117.333333 42.666667 49.792 59.562667 79.189333 50.773333 88.192-19.626667 19.413333-96.981333 7.808-232.106666-34.858667 29.184 61.909333 34.688 102.314667 16.554666 121.130667-27.221333 28.202667-127.402667-43.477333-169.642666-81.493333z m260.864-168.832c18.218667-59.562667-24.106667-125.312-94.506667-146.858667-70.4-21.546667-142.293333 9.301333-160.512 68.906667-18.218667 59.605333 24.106667 125.354667 94.506667 146.858667 70.4 21.546667 142.293333-9.301333 160.512-68.906667z m-182.101333-30.933333c-22.528-6.912-36.096-27.946667-30.250667-47.018667 5.845333-19.072 28.842667-28.928 51.370667-22.058667 22.528 6.912 36.053333 27.946667 30.250666 47.018667-5.845333 19.072-28.842667 28.928-51.370666 22.058667zM682.666667 736a256 256 0 0 0 251.477333-304.042667l-1.109333-5.376-62.378667 14.549334 1.28 6.314666a192 192 0 0 1-207.061333 223.744l-2.602667-0.298666-13.738667 62.848 10.453334 1.194666c7.850667 0.725333 15.744 1.066667 23.68 1.066667z m0-106.666667a149.333333 149.333333 0 0 0 147.072-175.274666l-0.64-3.242667-62.378667 14.549333 0.384 2.218667a85.333333 85.333333 0 0 1-81.749333 97.706667l-13.909334 63.616c3.712 0.298667 7.466667 0.426667 11.221334 0.426666z"  horiz-adv-x="1024" />
      
      <glyph glyph-name="a-tubiao" unicode="&#59307;" d="M832 192A106.666667 106.666667 0 0 0 938.666667 85.333333v-128h-64v128a42.666667 42.666667 0 0 1-39.466667 42.538667L832 128H640a42.666667 42.666667 0 0 1-42.538667-39.466667L597.333333 85.333333v-128h-64v128a106.666667 106.666667 0 0 0 106.666667 106.666667h192zM768 810.666667v-277.333334h-64v213.333334h-469.333333v-725.333334H469.333333V-42.666667H170.666667V810.666667h597.333333z m-32-341.333334a117.333333 117.333333 0 1 0 0-234.666666 117.333333 117.333333 0 0 0 0 234.666666z m0-64a53.333333 53.333333 0 1 1 0-106.666666 53.333333 53.333333 0 0 1 0 106.666666zM490.666667 426.666667v-64H298.666667V426.666667h192zM640 554.666667v-64H298.666667V554.666667h341.333333z m0 128v-64H298.666667V682.666667h341.333333z"  horiz-adv-x="1024" />
      
      <glyph glyph-name="a-icon48shanchu" unicode="&#59308;" d="M896 682.666667v-64h-106.666667V-42.666667h-554.666666V618.666667H128V682.666667h768z m-170.666667-64H298.666667v-597.333334h426.666666v597.333334zM469.333333 554.666667v-469.333334H405.333333V554.666667H469.333333z m149.333334 0v-469.333334H554.666667V554.666667h64z m21.333333 256v-64H384V810.666667h256z"  horiz-adv-x="1024" />
      
      <glyph glyph-name="a-icon48zhanghaoanquan" unicode="&#59309;" d="M512 832l384-229.333333v-437.333334L512-64l-384 229.333333V602.666667L512 832z m0-74.538667L192 566.357333v-364.672l320-191.146666 320 191.146666V566.357333L512 757.461333z m32-170.794666V426.666667h160v-64h-160v-160h-64V362.666667H320V426.666667h160V586.666667h64z"  horiz-adv-x="1024" />
      
      <glyph glyph-name="a-icon128daifukuan" unicode="&#59304;" d="M928 56h-832V712h832v-656zM872 656H152v-544h720L871.978667 256H640a128 128 0 1 0 0 256h231.978667l0.021333 144z m-0.021333-200H640a72 72 0 0 1-71.978667-69.866667l-0.021333-2.133333c0-39.04 31.104-70.826667 69.866667-71.978667l2.133333-0.021333 231.978667 0.021333v143.978667z"  horiz-adv-x="1024" />
      
      <glyph glyph-name="a-icon48kefu" unicode="&#59305;" d="M512 810.666667a384 384 0 0 0 384-384v-298.666667a170.666667 170.666667 0 0 0-170.666667-170.666667h-213.333333v64h213.333333a106.666667 106.666667 0 0 1 106.581334 102.058667L832 128v298.666667a320 320 0 0 1-639.914667 6.698666L192 426.666667v-234.666667H128V426.666667a384 384 0 0 0 384 384z m-192-362.666667v-256H256v256h64z m448 0v-256h-64v256H768z"  horiz-adv-x="1024" />
      
      <glyph glyph-name="a-icon48xie-stroke1" unicode="&#59306;" d="M737.109333 784.384l181.034667-181.034667L334.933333 20.224H154.026667v181.034667L737.109333 784.384z m-95.573333-186.026667l-423.594667-423.637333v-90.496H308.48l423.594667 423.594667-90.496 90.538666z m95.573333 95.530667l-50.346666-50.304 90.538666-90.496 50.304 50.261333-90.496 90.538667z"  horiz-adv-x="1024" />
      
      <glyph glyph-name="a-icon48youhuiquan" unicode="&#59299;" d="M938.666667 725.333333v-234.666666a85.333333 85.333333 0 1 1 0-170.666667V42.666667H85.333333v277.333333a85.333333 85.333333 0 1 1 0 170.666667V725.333333h853.333334z m-64-64h-725.333334v-121.045333l2.901334-1.408a149.333333 149.333333 0 0 0 82.346666-128.426667l0.085334-5.12a149.333333 149.333333 0 0 0-82.432-133.546666l-2.901334-1.365334V106.666667h725.333334v163.754666l-2.901334 1.365334a149.333333 149.333333 0 0 0-82.346666 128.426666l-0.085334 5.12a149.333333 149.333333 0 0 0 82.432 133.546667l2.901334 1.408V661.333333zM426.666667 597.333333v-426.666666H362.666667V597.333333H426.666667z"  horiz-adv-x="1024" />
      
      <glyph glyph-name="a-icon48huiyuanzhuanshu" unicode="&#59300;" d="M469.333333 362.666667V298.666667H286.208c-74.026667 0-134.314667-64.085333-136.789333-144.213334l-0.085334-5.12V42.666667H85.333333v106.666666c0 117.802667 89.173333 213.333333 199.125334 213.333334H469.333333z m277.333334 106.666666l67.626666-141.610666 155.562667-20.522667-113.792-108.074667 28.544-154.325333-137.941333 74.837333-137.941334-74.837333 28.544 154.325333-113.792 108.074667 155.562667 20.522667L746.666667 469.333333z m0-148.522666l-24.832-51.968-57.088-7.552 41.770666-39.68-10.496-56.661334 50.645334 27.477334 50.602666-27.477334-10.453333 56.661334 41.770667 39.68-57.088 7.552-24.832 51.968zM384 725.333333a149.333333 149.333333 0 0 0 5.12-298.581333L384 426.666667a149.333333 149.333333 0 0 0-5.12 298.581333L384 725.333333z m0-64a85.333333 85.333333 0 1 1 0-170.666666 85.333333 85.333333 0 0 1 0 170.666666z"  horiz-adv-x="1024" />
      
      <glyph glyph-name="a-icon48youhui" unicode="&#59301;" d="M512 866.730667L653.354667 725.333333H853.333333v-199.936L994.730667 384 853.333333 242.645333V42.666667h-199.978666L512-98.730667 370.602667 42.666667H170.666667v199.978666L29.269333 384 170.666667 525.397333V725.333333h199.936L512 866.730667z m0-90.496L397.098667 661.333333H234.666667v-162.474666l-114.901334-114.816L234.666667 269.141333V106.666667h162.474666l114.816-114.858667 114.901334 114.858667H789.333333v162.474666l114.858667 114.901334L789.333333 498.858667V661.333333h-162.474666l-114.901334 114.901334z m210.133333-200.277334l-322.176-383.914666H316.416l322.133333 383.914666h83.584zM640 362.666667a85.333333 85.333333 0 1 0 0-170.666667 85.333333 85.333333 0 0 0 0 170.666667z m0-64a21.333333 21.333333 0 1 1 0-42.666667 21.333333 21.333333 0 0 1 0 42.666667zM384 576a85.333333 85.333333 0 1 0 0-170.666667 85.333333 85.333333 0 0 0 0 170.666667zM384 512a21.333333 21.333333 0 1 1 0-42.666667 21.333333 21.333333 0 0 1 0 42.666667z"  horiz-adv-x="1024" />
      
      <glyph glyph-name="a-icon48pthuiyuan" unicode="&#59302;" d="M780.928 768L981.333333 524.928 512-55.594667 42.666667 524.928 243.072 768h537.856z m-30.165333-64H273.237333L125.312 524.544 512 46.208l386.730667 478.336L750.762667 704z m-46.250667-161.194667l49.792-40.277333-242.346667-299.690667-242.261333 299.690667 49.749333 40.277333L512 304.64l192.554667 238.08z"  horiz-adv-x="1024" />
      
      <glyph glyph-name="a-icon48youxiangtequan" unicode="&#59303;" d="M874.666667 64V0h-725.333334v64h725.333334zM512 810.666667l213.333333-298.666667 149.333334 202.666667V128H810.666667V519.936l-86.144-116.906667L512 700.586667l-212.522667-297.557334L213.333333 519.936V128H149.333333V714.666667L298.666667 512l213.333333 298.666667z m0-409.002667L572.330667 341.333333 512 281.002667 451.669333 341.333333 512 401.664z"  horiz-adv-x="1024" />
      
      <glyph glyph-name="a-icon48zhifubao-fill" unicode="&#59298;" d="M787.638857 789.321143a130.194286 130.194286 0 0 0 129.682286-129.938286v-420.790857s-25.929143 3.291429-142.628572 42.24c-32.475429 11.373714-76.251429 27.611429-124.891428 45.494857 29.184 50.358857 51.894857 108.836571 68.096 170.569143h-160.512V553.764571h196.205714v32.512H557.348571V682.057143H477.988571c-14.592 0-14.592-14.628571-14.592-14.628572v-82.834285H265.545143v-32.475429h197.814857v-55.222857H299.593143v-32.512h317.805714a578.413714 578.413714 0 0 0-45.421714-112.091429c-102.144 34.121143-212.370286 61.732571-282.112 43.885715-43.776-11.410286-72.96-30.902857-89.161143-50.395429-76.214857-92.598857-21.065143-233.947429 139.446857-233.947428 95.634286 0 188.050286 53.613714 259.401143 141.348571 34.157714-16.603429 78.884571-36.827429 123.940571-56.685714l18.029715-7.899429a11928.941714 11928.941714 0 0 1 175.798857-75.117714v-4.900572a130.194286 130.194286 0 0 0-129.682286-129.938285H236.361143a130.194286 130.194286 0 0 0-129.682286 129.938285V659.382857a130.194286 130.194286 0 0 0 129.682286 129.938286zM288.365714 345.782857c73.508571 8.118857 142.153143-21.028571 223.634286-61.476571-59.099429-74.459429-130.962286-121.417143-202.861714-121.417143-124.598857 0-161.316571 98.742857-99.035429 153.782857 20.772571 17.810286 57.526857 27.501714 78.262857 29.110857z"  horiz-adv-x="1024" />
      
      <glyph glyph-name="darkmode1" unicode="&#59294;" d="M1803.029333 704v-325.333333h-199.893333v-76.992h210.261333v-68.117334h-210.261333v-75.84H1856V89.6H1270.08v68.117333h252.864v75.84h-210.261333v68.117334h210.261333v77.013333h-199.189333V704h479.274666z m-1271.466666-1.066667v-68.117333h-192.896v-134.101333H561.066667v-68.117334h-208.512L580.224 89.6h-98.986667L293.546667 373.461333 105.898667 89.6H6.912l227.669333 342.997333H26.069333v68.117334h222.378667v134.101333h-192.853333V702.933333h475.946666z m612.010666-0.789333V89.6h-89.941333v41.856H796.650667V89.6h-89.941334V702.144h436.864z m-89.941333-403.093333H796.650667v-99.669334h256.981333v99.669334z m0 167.594666H796.650667v-99.669333h256.981333v99.669333z m669.226667 41.173334h-119.722667v-61.034667h119.701333v61.056z m-199.914667 0H1403.946667v-61.034667h118.997333v61.056zM1053.632 634.24H796.650667v-99.648h256.981333v99.626667z m669.226667 1.642667h-119.722667v-59.904h119.701333v59.904z m-199.914667 0H1403.946667v-59.904h118.997333v59.904z"  horiz-adv-x="1856" />
      
      <glyph glyph-name="darkmode" unicode="&#59293;" d="M3064.405333 682.666667v-316.309334h-188.8v-74.666666h198.314667v-66.517334h-198.314667v-73.322666H3114.666667V85.333333h-554.197334v66.517334h239.061334v73.322666h-198.314667v66.517334h198.314667v74.666666h-187.456V682.666667h452.330666z m-623.466666-1.365334v-594.602666h-84.224v40.725333H2114.922667v-40.746667h-85.568V681.322667h411.584z m-863.914667-8.128v-586.474666h-84.202667v586.453333h84.202667z m-176.576 0v-76.032h-321.92v-173.781333h282.517333v-76.010667H1078.528v-185.984h321.92v-74.666666H992.938667v586.453333h407.509333zM244.48 682.666667c51.626667 0 96.426667-12.224 134.485333-38.016 36.672-25.792 65.194667-61.077333 82.837334-105.877334 17.664-44.8 27.178667-96.405333 27.178666-154.773333 0-58.368-9.514667-109.973333-27.178666-154.773333-17.642667-43.434667-44.8-78.72-82.837334-104.533334-36.693333-25.792-81.493333-37.994667-134.485333-37.994666-52.970667 0-97.792 12.202667-134.485333 37.994666-36.672 25.813333-65.194667 61.098667-82.858667 105.898667C9.514667 275.413333 0 326.976 0 385.365333c0 58.368 9.514667 109.952 27.157333 154.752a234.112 234.112 0 0 0 82.858667 104.533334C148.053333 670.464 192.874667 682.666667 244.501333 682.666667z m502.592-165.632c38.016 0 70.613333-8.128 97.792-27.136 27.157333-19.008 46.186667-44.8 59.776-76.032 12.224-31.232 19.008-69.226667 19.008-111.317334 0-42.090667-5.44-78.741333-19.008-111.317333-12.224-32.597333-32.618667-57.024-59.776-76.032-27.157333-18.986667-59.776-28.501333-97.792-28.501333-38.037333 0-69.290667 9.493333-96.448 28.501333-27.178667 18.986667-46.186667 43.434667-59.776 76.032-13.568 31.210667-20.373333 69.226667-20.373333 111.317333 0 42.090667 6.805333 78.72 20.373333 111.317334 13.589333 32.576 32.597333 57.024 59.776 76.032 27.157333 17.642667 58.410667 27.136 96.426667 27.136z m1011.946667 0v-430.336h-84.202667V517.034667h84.202667z m-1010.602667-76.010667c-31.232 0-54.336-12.224-70.613333-36.650667-16.32-24.448-24.469333-58.389333-24.469334-103.189333 0-44.8 8.149333-78.72 24.448-103.168 14.933333-24.448 39.402667-36.650667 70.634667-36.650667 31.253333 0 54.336 12.202667 70.634667 36.650667 16.298667 24.426667 24.448 59.733333 24.448 103.168 0 44.8-8.149333 78.741333-24.448 103.189333-14.933333 24.426667-39.381333 36.650667-70.613334 36.650667z m-503.936 157.482667c-48.896 0-84.224-19.008-108.672-55.68-24.448-36.650667-36.672-89.6-36.672-157.461334 0-67.882667 12.224-120.832 36.693333-157.482666 24.426667-36.650667 61.098667-55.68 108.650667-55.68 47.530667 0 84.224 19.029333 108.672 55.68 24.448 36.650667 36.672 89.6 36.672 157.482666 0 67.861333-12.224 120.810667-36.693333 157.461334-24.426667 36.672-61.12 55.68-108.650667 55.68z m2112.213333-308.181334H2114.922667v-96.384h241.792v96.384z m0 161.557334H2114.922667v-96.384h241.792v96.384z m631.616 40.725333h-112.725333v-59.733333h112.725333v59.733333z m-187.434666 0h-112.746667v-59.733333h112.746667v59.733333z m-442.816 122.176H2116.266667V518.4h241.792v96.384z m630.250666 1.365333h-112.725333v-58.389333h112.725333v58.389333z m-187.434666 1.344h-112.746667v-58.368h112.746667v58.368z m-1037.781334 55.68v-92.330666h-92.373333v92.330666h92.373333z m-870.677333 0v-76.032H604.458667v76.032h287.978666z"  horiz-adv-x="3114" />
      
      <glyph glyph-name="lightmode1" unicode="&#59295;" d="M1803.029333 704v-325.333333h-199.893333v-76.992h210.261333v-68.117334h-210.261333v-75.84H1856V89.6H1270.08v68.117333h252.864v75.84h-210.261333v68.117334h210.261333v77.013333h-199.189333V704h479.274666z m-1271.466666-1.066667v-68.117333h-192.896v-134.101333H561.066667v-68.117334h-208.512L580.224 89.6h-98.986667L293.546667 373.461333 105.898667 89.6H6.912l227.669333 342.997333H26.069333v68.117334h222.378667v134.101333h-192.853333V702.933333h475.946666z m612.010666-0.789333V89.6h-89.941333v41.856H796.650667V89.6h-89.941334V702.144h436.864z m-89.941333-403.093333H796.650667v-99.669334h256.981333v99.669334z m0 167.594666H796.650667v-99.669333h256.981333v99.669333z m669.226667 41.173334h-119.722667v-61.034667h119.701333v61.056z m-199.914667 0H1403.946667v-61.034667h118.997333v61.056zM1053.632 634.24H796.650667v-99.648h256.981333v99.626667z m669.226667 1.642667h-119.722667v-59.904h119.701333v59.904z m-199.914667 0H1403.946667v-59.904h118.997333v59.904z"  horiz-adv-x="1856" />
      
      <glyph glyph-name="lightmode" unicode="&#59292;" d="M3064.405333 682.666667v-316.309334h-188.8v-74.666666h198.314667v-66.517334h-198.314667v-73.322666H3114.666667V85.333333h-554.197334v66.517334h239.061334v73.322666h-198.314667v66.517334h198.314667v74.666666h-187.456V682.666667h452.330666z m-623.466666-1.365334v-594.602666h-84.224v40.725333H2114.922667v-40.746667h-85.568V681.322667h411.584z m-863.914667-8.128v-586.474666h-84.202667v586.453333h84.202667z m-176.576 0v-76.032h-321.92v-173.781333h282.517333v-76.010667H1078.528v-185.984h321.92v-74.666666H992.938667v586.453333h407.509333zM244.48 682.666667c51.626667 0 96.426667-12.224 134.485333-38.016 36.672-25.792 65.194667-61.077333 82.837334-105.877334 17.664-44.8 27.178667-96.405333 27.178666-154.773333 0-58.368-9.514667-109.973333-27.178666-154.773333-17.642667-43.434667-44.8-78.72-82.837334-104.533334-36.693333-25.792-81.493333-37.994667-134.485333-37.994666-52.970667 0-97.792 12.202667-134.485333 37.994666-36.672 25.813333-65.194667 61.098667-82.858667 105.898667C9.514667 275.413333 0 326.976 0 385.365333c0 58.368 9.514667 109.952 27.157333 154.752a234.112 234.112 0 0 0 82.858667 104.533334C148.053333 670.464 192.874667 682.666667 244.501333 682.666667z m502.592-165.632c38.016 0 70.613333-8.128 97.792-27.136 27.157333-19.008 46.186667-44.8 59.776-76.032 12.224-31.232 19.008-69.226667 19.008-111.317334 0-42.090667-5.44-78.741333-19.008-111.317333-12.224-32.597333-32.618667-57.024-59.776-76.032-27.157333-18.986667-59.776-28.501333-97.792-28.501333-38.037333 0-69.290667 9.493333-96.448 28.501333-27.178667 18.986667-46.186667 43.434667-59.776 76.032-13.568 31.210667-20.373333 69.226667-20.373333 111.317333 0 42.090667 6.805333 78.72 20.373333 111.317334 13.589333 32.576 32.597333 57.024 59.776 76.032 27.157333 17.642667 58.410667 27.136 96.426667 27.136z m1011.946667 0v-430.336h-84.202667V517.034667h84.202667z m-1010.602667-76.010667c-31.232 0-54.336-12.224-70.613333-36.650667-16.32-24.448-24.469333-58.389333-24.469334-103.189333 0-44.8 8.149333-78.72 24.448-103.168 14.933333-24.448 39.402667-36.650667 70.634667-36.650667 31.253333 0 54.336 12.202667 70.634667 36.650667 16.298667 24.426667 24.448 59.733333 24.448 103.168 0 44.8-8.149333 78.741333-24.448 103.189333-14.933333 24.426667-39.381333 36.650667-70.613334 36.650667z m-503.936 157.482667c-48.896 0-84.224-19.008-108.672-55.68-24.448-36.650667-36.672-89.6-36.672-157.461334 0-67.882667 12.224-120.832 36.693333-157.482666 24.426667-36.650667 61.098667-55.68 108.650667-55.68 47.530667 0 84.224 19.029333 108.672 55.68 24.448 36.650667 36.672 89.6 36.672 157.482666 0 67.861333-12.224 120.810667-36.693333 157.461334-24.426667 36.672-61.12 55.68-108.650667 55.68z m2112.213333-308.181334H2114.922667v-96.384h241.792v96.384z m0 161.557334H2114.922667v-96.384h241.792v96.384z m631.616 40.725333h-112.725333v-59.733333h112.725333v59.733333z m-187.434666 0h-112.746667v-59.733333h112.746667v59.733333z m-442.816 122.176H2116.266667V518.4h241.792v96.384z m630.250666 1.365333h-112.725333v-58.389333h112.725333v58.389333z m-187.434666 1.344h-112.746667v-58.368h112.746667v58.368z m-1037.781334 55.68v-92.330666h-92.373333v92.330666h92.373333zM604.458667 673.173333h287.957333v-76.032H604.458667z"  horiz-adv-x="3114" />
      
      <glyph glyph-name="duanjiantou-you" unicode="&#59286;" d="M491.946667 779.946667L887.936 384l-395.946667-395.946667-45.269333 45.226667L797.44 384 446.698667 734.72z"  horiz-adv-x="1024" />
      
      <glyph glyph-name="duanjiantou-zuo" unicode="&#59289;" d="M521.386667 779.946667l45.226666-45.226667L215.936 384l350.72-350.72-45.269333-45.226667L125.44 384z"  horiz-adv-x="1024" />
      
      <glyph glyph-name="duanjiantou-shang" unicode="&#59290;" d="M117.333333 229.973333l45.248-45.248 350.72 350.72L864 184.725333l45.248 45.248-395.946667 395.968z"  horiz-adv-x="1024" />
      
      <glyph glyph-name="duanjiantou-xia" unicode="&#59291;" d="M117.333333 580.693333l45.248 45.248 350.72-350.72L864 625.941333l45.248-45.248-395.946667-395.968z"  horiz-adv-x="1024" />
      
      <glyph glyph-name="a-icon48jifen" unicode="&#59281;" d="M693.3504 661.3504a266.6496 266.6496 0 1 0-181.4016-462.1312 266.6496 266.6496 0 1 0 0.1536 390.912 265.1648 265.1648 0 0 0 181.248 71.168z m-362.7008-64a202.6496 202.6496 0 1 1 139.9808-349.2352 264.448 264.448 0 0 0-43.9808 146.5344c0 54.1696 16.128 104.4992 43.8784 146.5344a201.3184 201.3184 0 0 1-139.8784 56.1664z m362.7008 0c-54.272 0-103.5776-21.3504-139.9296-56.064 27.8016-42.1376 43.9296-92.4672 43.9296-146.6368a265.4208 265.4208 0 0 0-43.8784-146.5856 202.6496 202.6496 0 1 1 139.8784 349.2352z m-181.248-112.1792l-1.4336-2.6624c-12.8-26.5728-19.968-56.32-19.968-87.8592 0-32.512 7.6288-63.232 21.248-90.4704a200.448 200.448 0 0 1 21.4016 90.4704c0 32.5632-7.68 63.2832-21.2992 90.5216z"  horiz-adv-x="1024" />
      
      <glyph glyph-name="a-icon48tingche" unicode="&#59282;" d="M512 810.666667c235.648 0 426.666667-191.018667 426.666667-426.666667s-191.018667-426.666667-426.666667-426.666667S85.333333 148.352 85.333333 384 276.352 810.666667 512 810.666667z m0-64a362.666667 362.666667 0 1 1 0-725.333334 362.666667 362.666667 0 0 1 0 725.333334z m42.666667-128a149.333333 149.333333 0 0 0 0-298.666667h-128V128H362.666667V618.666667H554.666667zM554.666667 554.666667h-128v-170.666667h128a85.333333 85.333333 0 0 1 4.266666 170.581333L554.666667 554.666667z"  horiz-adv-x="1024" />
      
      <glyph glyph-name="a-icon48xiaoxi" unicode="&#59283;" d="M622.848 63.957333h70.229333a192.085333 192.085333 0 0 0-362.154666 0h70.229333a127.957333 127.957333 0 0 1 221.696 0zM512 810.666667a277.333333 277.333333 0 0 0 277.333333-277.333334V341.333333l106.666667-213.333333H128l106.666667 213.333333V533.333333A277.333333 277.333333 0 0 0 512 810.666667z m0-64a213.333333 213.333333 0 0 1-213.248-207.36L298.666667 533.333333v-207.104L231.552 192h560.896L725.333333 326.229333V533.333333a213.333333 213.333333 0 0 1-213.333333 213.333334z"  horiz-adv-x="1024" />
      
      <glyph glyph-name="a-icon48huiyuanka-stroke" unicode="&#59284;" d="M938.6496 725.3504v-682.7008H85.3504V725.3504h853.2992zM149.3504 512v-405.3504h725.2992V512H149.3504z m661.2992-277.3504v-64h-256v64h256zM149.3504 576h725.2992V661.3504H149.3504V576z"  horiz-adv-x="1024" />
      
      <glyph glyph-name="a-icon48dingdan" unicode="&#59285;" d="M853.333333 768v-810.666667H170.666667V768h128v-64H234.666667v-682.666667h554.666666v682.666667H725.333333V768h128z m-362.666666-405.333333V298.666667H298.666667v64h192z m234.666666 128V426.666667H298.666667V490.666667h426.666666z m0 128V554.666667H298.666667V618.666667h426.666666z m-64 85.333333H597.333333v42.666667h-170.666666v-42.666667H362.666667V810.666667h298.666666v-106.666667z"  horiz-adv-x="1024" />
      
      <glyph glyph-name="a-icon48erweima" unicode="&#59287;" d="M128 768v-341.333333h341.333333V768H128z m277.333333-277.333333H192V704h213.333333v-213.333333zM128 341.33333300000004v-341.333333h341.333333V341.33333300000004H128z m277.333333-277.333333H192V277.33333300000004h213.333333v-213.333333zM554.666667 768v-341.333333h341.333333V768H554.666667z m277.333333-277.333333H618.666667V704h213.333333v-213.333333zM554.666667 341.33333300000004h85.333333v-85.333333h-85.333333zM832 341.33333300000004h-128v-149.333333h-149.333333v-192h341.333333V341.33333300000004h-64z m0-149.333333v-128H618.666667v64h149.333333v149.333333h64v-85.333333z"  horiz-adv-x="1024" />
      
      <glyph glyph-name="a-icon48shezhi" unicode="&#59288;" d="M640 810.666667v-110.165334c29.653333-11.946667 57.216-28.032 82.048-47.402666l95.445333 55.082666 128-221.696-95.402666-55.125333a344.32 344.32 0 0 0 0-94.72l95.402666-55.125333-128-221.696-95.445333 55.082666A340.992 340.992 0 0 0 640 67.498667V-42.666667H384v110.165334a340.992 340.992 0 0 0-82.048 47.402666L206.506667 59.818667l-128 221.696 95.402666 55.125333a344.32 344.32 0 0 0 0 94.72L78.506667 486.485333l128 221.696 95.445333-55.082666A340.992 340.992 0 0 0 384 700.501333V810.666667h256z m-64-64h-128v-89.301334l-39.978667-16.170666c-20.906667-8.448-40.704-19.456-58.922666-32.725334L341.333333 602.666667l-34.005333-26.581334L229.888 620.8l-64-110.890667 77.354667-44.672-5.930667-42.666666a280.32 280.32 0 0 1-1.152-67.584l1.152-9.557334 5.930667-42.666666-77.312-44.629334 64-110.890666 77.44 44.672 34.005333-26.581334c17.792-13.866667 37.162667-25.6 57.728-34.730666l8.917333-3.797334 39.978667-16.213333V21.333333h128v89.301334l39.978667 16.170666c20.906667 8.448 40.704 19.456 58.922666 32.725334l7.722667 5.802666 34.005333 26.581334 77.44-44.672 64 110.848-77.312 44.672 5.930667 42.666666a280.32 280.32 0 0 1 1.152 67.584l-1.152 9.557334-5.930667 42.666666 77.312 44.672-64 110.848-77.44-44.672L682.666667 602.666667a277.205333 277.205333 0 0 1-57.728 34.730666l-8.917334 3.797334-39.978666 16.213333V746.666667zM512 554.666667a170.666667 170.666667 0 1 0 0-341.333334 170.666667 170.666667 0 0 0 0 341.333334z m0-64a106.666667 106.666667 0 1 1 0-213.333334 106.666667 106.666667 0 0 1 0 213.333334z"  horiz-adv-x="1024" />
      
      <glyph glyph-name="fill" unicode="&#59278;" d="M512 810.666667c235.648 0 426.666667-191.018667 426.666667-426.666667s-191.018667-426.666667-426.666667-426.666667S85.333333 148.352 85.333333 384 276.352 810.666667 512 810.666667z m210.24-222.72L424.874667 290.602667l-114.24 114.261333-45.269334-45.269333 159.509334-159.488 342.613333 342.613333-45.226667 45.269333z"  horiz-adv-x="1024" />
      
      <glyph glyph-name="stroke" unicode="&#59279;" d="M512 810.666667c235.648 0 426.666667-191.018667 426.666667-426.666667s-191.018667-426.666667-426.666667-426.666667S85.333333 148.352 85.333333 384 276.352 810.666667 512 810.666667z m0-64C311.701333 746.666667 149.333333 584.298667 149.333333 384s162.368-362.666667 362.666667-362.666667 362.666667 162.368 362.666667 362.666667S712.298667 746.666667 512 746.666667z"  horiz-adv-x="1024" />
      
      <glyph glyph-name="cuowu-fill" unicode="&#59277;" d="M512 810.666667c235.648 0 426.666667-191.018667 426.666667-426.666667s-191.018667-426.666667-426.666667-426.666667S85.333333 148.352 85.333333 384 276.352 810.666667 512 810.666667z m158.4-223.018667L512 429.226667l-158.4 158.4-45.226667-45.248L466.730667 384l-158.4-158.4 45.248-45.226667L512 338.730667l158.4-158.4 45.226667 45.248L557.269333 384l158.4 158.4-45.248 45.226667z"  horiz-adv-x="1024" />
      
      <glyph glyph-name="cuowu-stroke" unicode="&#59276;" d="M512 810.666667c235.648 0 426.666667-191.018667 426.666667-426.666667s-191.018667-426.666667-426.666667-426.666667S85.333333 148.352 85.333333 384 276.352 810.666667 512 810.666667z m0-64C311.701333 746.666667 149.333333 584.298667 149.333333 384s162.368-362.666667 362.666667-362.666667 362.666667 162.368 362.666667 362.666667S712.298667 746.666667 512 746.666667z m158.4-159.018667l45.226667-45.248L557.269333 384l158.4-158.4-45.248-45.226667L512 338.730667l-158.4-158.4-45.226667 45.248L466.730667 384l-158.4 158.4 45.248 45.226667L512 429.269333l158.4 158.4z"  horiz-adv-x="1024" />
      
      <glyph glyph-name="weixin-fill" unicode="&#59270;" d="M682.666667 501.333333c141.376 0 256-100.288 256-224 0-72.576-39.466667-137.109333-100.629334-178.048L864 21.333333l-84.842667 48.448A287.36 287.36 0 0 0 682.666667 53.333333c-141.376 0-256 100.288-256 224s114.624 224 256 224zM384 725.333333c134.762667 0 248.682667-76.501333 285.866667-181.610666C512.341333 537.813333 384 422.570667 384 277.333333c0-22.08 2.986667-43.477333 8.533333-63.893333a342.826667 342.826667 0 0 0-111.658666 15.552L170.688 170.666667l38.08 91.349333C133.973333 308.522667 85.333333 384.064 85.333333 469.333333c0 141.376 133.717333 256 298.666667 256z m224-362.666666a32 32 0 1 1 0-64 32 32 0 0 1 0 64z m170.666667 0a32 32 0 1 1 0-64 32 32 0 0 1 0 64z m-490.666667 234.666666a32 32 0 1 1 0-64 32 32 0 0 1 0 64z m192 0a32 32 0 1 1 0-64 32 32 0 0 1 0 64z"  horiz-adv-x="1024" />
      
      <glyph glyph-name="weibo-fill" unicode="&#59271;" d="M210.901333 502.869333c106.965333 105.322667 232.533333 153.386667 279.04 107.605334 20.928-20.586667 23.253333-54.933333 9.301334-98.453334-6.976-20.586667 20.928-9.152 20.928-9.152 86.037333 36.629333 162.773333 38.933333 190.677333 0 13.952-20.608 13.952-50.368 0-84.693333-6.976-13.76 2.325333-16.042667 13.952-20.629333 48.832-16.021333 104.64-52.650667 104.64-116.757334C829.44 175.466667 675.968 42.666667 443.434667 42.666667 266.709333 42.666667 85.333333 127.381333 85.333333 267.050667c0 73.258667 46.506667 155.690667 125.568 235.818666zM682.944 283.093333c-9.301333 89.301333-130.218667 153.386667-272.064 139.669334-141.845333-13.738667-248.810667-98.453333-239.509333-190.037334 9.301333-89.301333 130.218667-153.386667 272.064-139.669333 141.845333 13.738667 248.810667 98.453333 239.509333 190.037333z m-397.632-2.282666c27.904 57.237333 104.64 91.584 172.074667 73.258666 69.76-18.304 104.64-82.432 76.736-144.234666-27.904-64.106667-111.616-98.453333-181.376-75.562667-67.434667 20.608-97.664 86.997333-67.434667 146.538667z m104.64-25.173334c-20.928 9.130667-48.832 0-62.784-20.629333-13.952-20.608-6.976-45.781333 13.952-54.954667 23.253333-11.434667 51.157333 0 65.109333 20.608 13.952 22.912 6.976 48.085333-16.277333 54.954667zM704 725.333333c129.6 0 234.666667-105.066667 234.666667-234.666666 0-23.466667-3.456-46.464-10.176-68.501334a32 32 0 0 0-61.226667 18.645334 170.666667 170.666667 0 0 1-186.88 218.88 32 32 0 0 0-8.746667 63.424C682.304 724.608 693.098667 725.333333 704 725.333333z m0-117.333333a117.333333 117.333333 0 0 0 115.946667-135.445333 32 32 0 0 0-63.573334 6.762666l0.32 3.050667a53.333333 53.333333 0 0 1-62.016 60.8 32 32 0 1 0-11.029333 63.061333c6.677333 1.173333 13.482667 1.770667 20.352 1.770667z"  horiz-adv-x="1024" />
      
      <glyph glyph-name="weixin-stroke" unicode="&#59272;" d="M682.666667 501.333333c141.376 0 256-100.288 256-224 0-72.576-39.466667-137.109333-100.629334-178.048L864 21.333333l-84.842667 48.448A287.36 287.36 0 0 0 682.666667 53.333333c-141.376 0-256 100.288-256 224s114.624 224 256 224z m0-64c-107.797333 0-192-73.685333-192-160 0-86.314667 84.202667-160 192-160 23.274667 0 45.888 3.456 67.114666 10.112l7.893334 2.624 24.085333 8.597334 20.693333 13.824c44.053333 29.482667 70.144 72.874667 72.106667 119.253333L874.666667 277.333333c0 86.314667-84.202667 160-192 160zM384 725.333333c125.632 0 233.130667-66.474667 277.269333-160.64-23.061333-1.365333-45.482667-4.949333-67.008-10.496C556.224 616.96 477.269333 661.333333 384 661.333333c-131.605333 0-234.666667-88.32-234.666667-192 0-57.92 32.064-112.554667 87.424-149.248l5.802667-3.733333 30.592-19.029333 1.472 0.768 25.514667-8.064c19.968-6.293333 40.96-10.304 62.528-11.904V277.333333c0-21.973333 2.688-43.264 7.786666-63.722666a340.373333 340.373333 0 0 0-89.557333 15.381333L170.666667 170.666667l38.08 91.349333C133.973333 308.522667 85.333333 384.064 85.333333 469.333333c0 141.376 133.717333 256 298.666667 256z m224-362.666666a32 32 0 1 0 0-64 32 32 0 0 0 0 64z m170.666667 0a32 32 0 1 0 0-64 32 32 0 0 0 0 64z m-490.666667 234.666666a32 32 0 1 0 0-64 32 32 0 0 0 0 64z m192 0a32 32 0 1 0 0-64 32 32 0 0 0 0 64z"  horiz-adv-x="1024" />
      
      <glyph glyph-name="weixinzhifu-fill" unicode="&#59273;" d="M352 297.642667l-64 149.674666c-24.64 71.104 21.312 32.064 21.312 32.064s39.424-29.888 69.333333-48.106666c29.909333-18.197333 64-5.333333 64-5.333334l418.474667 193.536C783.893333 715.733333 656.362667 778.666667 511.978667 778.666667 276.330667 778.666667 85.333333 611.178667 85.333333 404.544c0-118.848 63.253333-224.64 161.770667-293.205333l-17.770667-102.314667s-8.661333-29.866667 21.333334-16.021333c20.48 9.450667 72.618667 43.306667 103.658666 63.893333A477.952 477.952 0 0 1 512 30.4c235.626667 0 426.666667 167.509333 426.666667 374.144 0 59.84-16.106667 116.373333-44.608 166.528-133.333333-80.362667-443.434667-267.157333-483.413334-289.450667-51.072-28.522667-58.666667 16.021333-58.666666 16.021334z"  horiz-adv-x="1024" />
      
      <glyph glyph-name="weixinzhifu-stroke" unicode="&#59274;" d="M511.978667 768c144.384 0 271.936-62.933333 349.141333-159.189333 9.024-14.762667 20.010667-30.890667 32.938667-48.405334 28.501333-50.154667 44.608-106.666667 44.608-166.528 0-206.634667-191.04-374.144-426.666667-374.144-55.722667 0-108.885333 9.472-157.674667 26.496l-26.410666-17.344-17.6-11.306666-17.578667-11.093334-11.2-6.869333-10.389333-6.208c-8.256-4.821333-15.36-8.704-20.48-11.093333-20.352-9.386667-22.912 1.344-22.442667 9.216l0.213333 2.368 0.896 4.458666 17.770667 102.314667C148.586667 169.237333 85.333333 275.029333 85.333333 393.877333 85.333333 600.512 276.330667 768 511.978667 768z m0-64C309.952 704 149.333333 563.157333 149.333333 393.877333c0-91.434667 46.890667-176.981333 127.701334-235.946666l6.613333-4.714667 33.493333-23.296 28.266667-12.8 30.016-10.453333A413.952 413.952 0 0 1 512 83.733333c202.026667 0 362.666667 140.864 362.666667 310.144a270.293333 270.293333 0 0 1-31.936 127.018667l-2.794667 5.098667-4.181333 5.76-1.002667 1.365333C576.490667 379.093333 435.114667 295.253333 410.666667 281.6c-51.072-28.522667-58.666667 16.021333-58.666667 16.021333l-64 149.674667c-24.618667 71.104 21.333333 32.064 21.333333 32.064s21.632-16.405333 45.013334-32.298667l7.04-4.736c5.866667-3.925333 11.733333-7.68 17.28-11.072 29.909333-18.197333 64-5.333333 64-5.333333l352.085333 161.770667c-66.218667 70.592-165.461333 114.005333-274.090667 116.202666L511.978667 704z"  horiz-adv-x="1024" />
      
      <glyph glyph-name="zuo" unicode="&#59263;" d="M432 784l45.248-45.248L154.474667 416H1024v-64H155.008L477.226667 29.76l-45.248-45.269333L32.256 384.256 432 784z"  horiz-adv-x="1024" />
      
      <glyph glyph-name="youxiajiao" unicode="&#59264;" d="M325.973333-0.618667v64h456.405334L122.325333 723.434667l45.248 45.269333L827.306667 108.949333V564.714667h64v-565.333334z"  horiz-adv-x="1024" />
      
      <glyph glyph-name="zuoxiajiao" unicode="&#59265;" d="M687.658667-0.618667v64H231.232L891.306667 723.434667l-45.226667 45.269333L186.325333 108.949333V564.714667h-64v-565.333334z"  horiz-adv-x="1024" />
      
      <glyph glyph-name="you" unicode="&#59266;" d="M592 784l-45.248-45.248L869.525333 416H0v-64h868.992L546.773333 29.76l45.248-45.269333 399.744 399.765333L592 784z"  horiz-adv-x="1024" />
      
      <glyph glyph-name="zuoshangjiao" unicode="&#59267;" d="M687.658667 768.725333v-64H231.232l660.053333-660.096-45.226666-45.226666L186.325333 659.114667v-455.744h-64v565.333333z"  horiz-adv-x="1024" />
      
      <glyph glyph-name="youshangjiao" unicode="&#59268;" d="M324.842667 768.725333v-64h456.426666L121.216 44.629333l45.226667-45.226666 659.754666 659.733333v-455.744h64v565.333333z"  horiz-adv-x="1024" />
      
    </font>
</defs>
</svg>
